%TF.GenerationSoftware,KiCad,Pcbnew,(5.1.10)-1*%
%TF.CreationDate,2021-07-30T22:48:11+05:30*%
%TF.ProjectId,Logic Board,4c6f6769-6320-4426-9f61-72642e6b6963,rev?*%
%TF.SameCoordinates,Original*%
%TF.FileFunction,Legend,Top*%
%TF.FilePolarity,Positive*%
%FSLAX46Y46*%
G04 Gerber Fmt 4.6, Leading zero omitted, Abs format (unit mm)*
G04 Created by KiCad (PCBNEW (5.1.10)-1) date 2021-07-30 22:48:11*
%MOMM*%
%LPD*%
G01*
G04 APERTURE LIST*
%ADD10C,0.120000*%
%ADD11C,0.152400*%
%ADD12C,0.150000*%
G04 APERTURE END LIST*
D10*
X169549510Y-110000000D02*
G75*
G03*
X169549510Y-110000000I-2549510J0D01*
G01*
X130500000Y-110000000D02*
G75*
G03*
X130500000Y-110000000I-2500000J0D01*
G01*
X130500000Y-91000000D02*
G75*
G03*
X130500000Y-91000000I-2500000J0D01*
G01*
X169549510Y-91000000D02*
G75*
G03*
X169549510Y-91000000I-2549510J0D01*
G01*
%TO.C,U5*%
X136440000Y-108610000D02*
X136440000Y-108380000D01*
X136440000Y-103890000D02*
X136440000Y-104120000D01*
X136440000Y-103890000D02*
X139160000Y-103890000D01*
X139160000Y-103890000D02*
X139160000Y-105200000D01*
X135300000Y-104120000D02*
X136440000Y-104120000D01*
X139160000Y-108610000D02*
X136440000Y-108610000D01*
X139160000Y-107300000D02*
X139160000Y-108610000D01*
%TO.C,R14*%
X134272500Y-100237258D02*
X134272500Y-99762742D01*
X133227500Y-100237258D02*
X133227500Y-99762742D01*
%TO.C,R13*%
X137272500Y-100237258D02*
X137272500Y-99762742D01*
X136227500Y-100237258D02*
X136227500Y-99762742D01*
%TO.C,R12*%
X154512742Y-110522500D02*
X154987258Y-110522500D01*
X154512742Y-109477500D02*
X154987258Y-109477500D01*
%TO.C,R11*%
X158487258Y-101977500D02*
X158012742Y-101977500D01*
X158487258Y-103022500D02*
X158012742Y-103022500D01*
%TO.C,R9*%
X154512742Y-99022500D02*
X154987258Y-99022500D01*
X154512742Y-97977500D02*
X154987258Y-97977500D01*
%TO.C,R8*%
X158487258Y-90477500D02*
X158012742Y-90477500D01*
X158487258Y-91522500D02*
X158012742Y-91522500D01*
%TO.C,R6*%
X145012742Y-110522500D02*
X145487258Y-110522500D01*
X145012742Y-109477500D02*
X145487258Y-109477500D01*
%TO.C,R5*%
X148987258Y-101977500D02*
X148512742Y-101977500D01*
X148987258Y-103022500D02*
X148512742Y-103022500D01*
%TO.C,R4*%
X148512742Y-98772500D02*
X148987258Y-98772500D01*
X148512742Y-97727500D02*
X148987258Y-97727500D01*
%TO.C,R3*%
X145012742Y-98772500D02*
X145487258Y-98772500D01*
X145012742Y-97727500D02*
X145487258Y-97727500D01*
%TO.C,R1*%
X148987258Y-90227500D02*
X148512742Y-90227500D01*
X148987258Y-91272500D02*
X148512742Y-91272500D01*
%TO.C,D2*%
X132900000Y-106000000D02*
X132900000Y-103450000D01*
X134600000Y-106000000D02*
X134600000Y-103450000D01*
X132900000Y-106000000D02*
X134600000Y-106000000D01*
%TO.C,D1*%
X134600000Y-106500000D02*
X134600000Y-109050000D01*
X132900000Y-106500000D02*
X132900000Y-109050000D01*
X134600000Y-106500000D02*
X132900000Y-106500000D01*
%TO.C,C15*%
X140260000Y-100140580D02*
X140260000Y-99859420D01*
X139240000Y-100140580D02*
X139240000Y-99859420D01*
%TO.C,C13*%
X140490000Y-104359420D02*
X140490000Y-104640580D01*
X141510000Y-104359420D02*
X141510000Y-104640580D01*
%TO.C,C12*%
X141510000Y-108140580D02*
X141510000Y-107859420D01*
X140490000Y-108140580D02*
X140490000Y-107859420D01*
%TO.C,C11*%
X160740000Y-105109420D02*
X160740000Y-105390580D01*
X161760000Y-105109420D02*
X161760000Y-105390580D01*
%TO.C,C10*%
X160740000Y-93609420D02*
X160740000Y-93890580D01*
X161760000Y-93609420D02*
X161760000Y-93890580D01*
%TO.C,C9*%
X151240000Y-105109420D02*
X151240000Y-105390580D01*
X152260000Y-105109420D02*
X152260000Y-105390580D01*
%TO.C,C8*%
X151240000Y-93359420D02*
X151240000Y-93640580D01*
X152260000Y-93359420D02*
X152260000Y-93640580D01*
%TO.C,C7*%
X158109420Y-110510000D02*
X158390580Y-110510000D01*
X158109420Y-109490000D02*
X158390580Y-109490000D01*
%TO.C,C6*%
X154865580Y-101990000D02*
X154584420Y-101990000D01*
X154865580Y-103010000D02*
X154584420Y-103010000D01*
%TO.C,C5*%
X158109420Y-99010000D02*
X158390580Y-99010000D01*
X158109420Y-97990000D02*
X158390580Y-97990000D01*
%TO.C,C4*%
X154890580Y-90490000D02*
X154609420Y-90490000D01*
X154890580Y-91510000D02*
X154609420Y-91510000D01*
%TO.C,C3*%
X148609420Y-110510000D02*
X148890580Y-110510000D01*
X148609420Y-109490000D02*
X148890580Y-109490000D01*
%TO.C,C2*%
X145390580Y-101990000D02*
X145109420Y-101990000D01*
X145390580Y-103010000D02*
X145109420Y-103010000D01*
%TO.C,C1*%
X145390580Y-90240000D02*
X145109420Y-90240000D01*
X145390580Y-91260000D02*
X145109420Y-91260000D01*
%TO.C,J1*%
X125630000Y-94170000D02*
X128230000Y-94170000D01*
X125630000Y-94170000D02*
X125630000Y-106990000D01*
X125630000Y-106990000D02*
X130830000Y-106990000D01*
X130830000Y-96770000D02*
X130830000Y-106990000D01*
X128230000Y-96770000D02*
X130830000Y-96770000D01*
X128230000Y-94170000D02*
X128230000Y-96770000D01*
X130830000Y-94170000D02*
X130830000Y-95500000D01*
X129500000Y-94170000D02*
X130830000Y-94170000D01*
%TO.C,U4*%
X156500000Y-108810000D02*
X158450000Y-108810000D01*
X156500000Y-108810000D02*
X154550000Y-108810000D01*
X156500000Y-103690000D02*
X158450000Y-103690000D01*
X156500000Y-103690000D02*
X153050000Y-103690000D01*
%TO.C,U3*%
X156500000Y-97310000D02*
X158450000Y-97310000D01*
X156500000Y-97310000D02*
X154550000Y-97310000D01*
X156500000Y-92190000D02*
X158450000Y-92190000D01*
X156500000Y-92190000D02*
X153050000Y-92190000D01*
%TO.C,U2*%
X147000000Y-97060000D02*
X148950000Y-97060000D01*
X147000000Y-97060000D02*
X145050000Y-97060000D01*
X147000000Y-91940000D02*
X148950000Y-91940000D01*
X147000000Y-91940000D02*
X143550000Y-91940000D01*
%TO.C,U1*%
X147000000Y-108810000D02*
X148950000Y-108810000D01*
X147000000Y-108810000D02*
X145050000Y-108810000D01*
X147000000Y-103690000D02*
X148950000Y-103690000D01*
X147000000Y-103690000D02*
X143550000Y-103690000D01*
%TO.C,U5*%
D11*
X137130723Y-107554895D02*
X137130723Y-108212876D01*
X137169428Y-108290285D01*
X137208133Y-108328990D01*
X137285542Y-108367695D01*
X137440361Y-108367695D01*
X137517771Y-108328990D01*
X137556476Y-108290285D01*
X137595180Y-108212876D01*
X137595180Y-107554895D01*
X138369276Y-107554895D02*
X137982228Y-107554895D01*
X137943523Y-107941942D01*
X137982228Y-107903238D01*
X138059638Y-107864533D01*
X138253161Y-107864533D01*
X138330571Y-107903238D01*
X138369276Y-107941942D01*
X138407980Y-108019352D01*
X138407980Y-108212876D01*
X138369276Y-108290285D01*
X138330571Y-108328990D01*
X138253161Y-108367695D01*
X138059638Y-108367695D01*
X137982228Y-108328990D01*
X137943523Y-108290285D01*
%TO.C,R14*%
X135617695Y-100522514D02*
X135230647Y-100793447D01*
X135617695Y-100986971D02*
X134804895Y-100986971D01*
X134804895Y-100677333D01*
X134843600Y-100599923D01*
X134882304Y-100561219D01*
X134959714Y-100522514D01*
X135075828Y-100522514D01*
X135153238Y-100561219D01*
X135191942Y-100599923D01*
X135230647Y-100677333D01*
X135230647Y-100986971D01*
X135617695Y-99748419D02*
X135617695Y-100212876D01*
X135617695Y-99980647D02*
X134804895Y-99980647D01*
X134921009Y-100058057D01*
X134998419Y-100135466D01*
X135037123Y-100212876D01*
X135075828Y-99051733D02*
X135617695Y-99051733D01*
X134766190Y-99245257D02*
X135346761Y-99438780D01*
X135346761Y-98935619D01*
%TO.C,R13*%
X138617695Y-100522514D02*
X138230647Y-100793447D01*
X138617695Y-100986971D02*
X137804895Y-100986971D01*
X137804895Y-100677333D01*
X137843600Y-100599923D01*
X137882304Y-100561219D01*
X137959714Y-100522514D01*
X138075828Y-100522514D01*
X138153238Y-100561219D01*
X138191942Y-100599923D01*
X138230647Y-100677333D01*
X138230647Y-100986971D01*
X138617695Y-99748419D02*
X138617695Y-100212876D01*
X138617695Y-99980647D02*
X137804895Y-99980647D01*
X137921009Y-100058057D01*
X137998419Y-100135466D01*
X138037123Y-100212876D01*
X137804895Y-99477485D02*
X137804895Y-98974323D01*
X138114533Y-99245257D01*
X138114533Y-99129142D01*
X138153238Y-99051733D01*
X138191942Y-99013028D01*
X138269352Y-98974323D01*
X138462876Y-98974323D01*
X138540285Y-99013028D01*
X138578990Y-99051733D01*
X138617695Y-99129142D01*
X138617695Y-99361371D01*
X138578990Y-99438780D01*
X138540285Y-99477485D01*
%TO.C,R12*%
X154227485Y-111617695D02*
X153956552Y-111230647D01*
X153763028Y-111617695D02*
X153763028Y-110804895D01*
X154072666Y-110804895D01*
X154150076Y-110843600D01*
X154188780Y-110882304D01*
X154227485Y-110959714D01*
X154227485Y-111075828D01*
X154188780Y-111153238D01*
X154150076Y-111191942D01*
X154072666Y-111230647D01*
X153763028Y-111230647D01*
X155001580Y-111617695D02*
X154537123Y-111617695D01*
X154769352Y-111617695D02*
X154769352Y-110804895D01*
X154691942Y-110921009D01*
X154614533Y-110998419D01*
X154537123Y-111037123D01*
X155311219Y-110882304D02*
X155349923Y-110843600D01*
X155427333Y-110804895D01*
X155620857Y-110804895D01*
X155698266Y-110843600D01*
X155736971Y-110882304D01*
X155775676Y-110959714D01*
X155775676Y-111037123D01*
X155736971Y-111153238D01*
X155272514Y-111617695D01*
X155775676Y-111617695D01*
%TO.C,R11*%
X157727485Y-101617695D02*
X157456552Y-101230647D01*
X157263028Y-101617695D02*
X157263028Y-100804895D01*
X157572666Y-100804895D01*
X157650076Y-100843600D01*
X157688780Y-100882304D01*
X157727485Y-100959714D01*
X157727485Y-101075828D01*
X157688780Y-101153238D01*
X157650076Y-101191942D01*
X157572666Y-101230647D01*
X157263028Y-101230647D01*
X158501580Y-101617695D02*
X158037123Y-101617695D01*
X158269352Y-101617695D02*
X158269352Y-100804895D01*
X158191942Y-100921009D01*
X158114533Y-100998419D01*
X158037123Y-101037123D01*
X159275676Y-101617695D02*
X158811219Y-101617695D01*
X159043447Y-101617695D02*
X159043447Y-100804895D01*
X158966038Y-100921009D01*
X158888628Y-100998419D01*
X158811219Y-101037123D01*
%TO.C,R9*%
X154614533Y-100117695D02*
X154343600Y-99730647D01*
X154150076Y-100117695D02*
X154150076Y-99304895D01*
X154459714Y-99304895D01*
X154537123Y-99343600D01*
X154575828Y-99382304D01*
X154614533Y-99459714D01*
X154614533Y-99575828D01*
X154575828Y-99653238D01*
X154537123Y-99691942D01*
X154459714Y-99730647D01*
X154150076Y-99730647D01*
X155001580Y-100117695D02*
X155156400Y-100117695D01*
X155233809Y-100078990D01*
X155272514Y-100040285D01*
X155349923Y-99924171D01*
X155388628Y-99769352D01*
X155388628Y-99459714D01*
X155349923Y-99382304D01*
X155311219Y-99343600D01*
X155233809Y-99304895D01*
X155078990Y-99304895D01*
X155001580Y-99343600D01*
X154962876Y-99382304D01*
X154924171Y-99459714D01*
X154924171Y-99653238D01*
X154962876Y-99730647D01*
X155001580Y-99769352D01*
X155078990Y-99808057D01*
X155233809Y-99808057D01*
X155311219Y-99769352D01*
X155349923Y-99730647D01*
X155388628Y-99653238D01*
%TO.C,R8*%
X158114533Y-90117695D02*
X157843600Y-89730647D01*
X157650076Y-90117695D02*
X157650076Y-89304895D01*
X157959714Y-89304895D01*
X158037123Y-89343600D01*
X158075828Y-89382304D01*
X158114533Y-89459714D01*
X158114533Y-89575828D01*
X158075828Y-89653238D01*
X158037123Y-89691942D01*
X157959714Y-89730647D01*
X157650076Y-89730647D01*
X158578990Y-89653238D02*
X158501580Y-89614533D01*
X158462876Y-89575828D01*
X158424171Y-89498419D01*
X158424171Y-89459714D01*
X158462876Y-89382304D01*
X158501580Y-89343600D01*
X158578990Y-89304895D01*
X158733809Y-89304895D01*
X158811219Y-89343600D01*
X158849923Y-89382304D01*
X158888628Y-89459714D01*
X158888628Y-89498419D01*
X158849923Y-89575828D01*
X158811219Y-89614533D01*
X158733809Y-89653238D01*
X158578990Y-89653238D01*
X158501580Y-89691942D01*
X158462876Y-89730647D01*
X158424171Y-89808057D01*
X158424171Y-89962876D01*
X158462876Y-90040285D01*
X158501580Y-90078990D01*
X158578990Y-90117695D01*
X158733809Y-90117695D01*
X158811219Y-90078990D01*
X158849923Y-90040285D01*
X158888628Y-89962876D01*
X158888628Y-89808057D01*
X158849923Y-89730647D01*
X158811219Y-89691942D01*
X158733809Y-89653238D01*
%TO.C,R6*%
X145114533Y-111617695D02*
X144843600Y-111230647D01*
X144650076Y-111617695D02*
X144650076Y-110804895D01*
X144959714Y-110804895D01*
X145037123Y-110843600D01*
X145075828Y-110882304D01*
X145114533Y-110959714D01*
X145114533Y-111075828D01*
X145075828Y-111153238D01*
X145037123Y-111191942D01*
X144959714Y-111230647D01*
X144650076Y-111230647D01*
X145811219Y-110804895D02*
X145656400Y-110804895D01*
X145578990Y-110843600D01*
X145540285Y-110882304D01*
X145462876Y-110998419D01*
X145424171Y-111153238D01*
X145424171Y-111462876D01*
X145462876Y-111540285D01*
X145501580Y-111578990D01*
X145578990Y-111617695D01*
X145733809Y-111617695D01*
X145811219Y-111578990D01*
X145849923Y-111540285D01*
X145888628Y-111462876D01*
X145888628Y-111269352D01*
X145849923Y-111191942D01*
X145811219Y-111153238D01*
X145733809Y-111114533D01*
X145578990Y-111114533D01*
X145501580Y-111153238D01*
X145462876Y-111191942D01*
X145424171Y-111269352D01*
%TO.C,R5*%
X148614533Y-101617695D02*
X148343600Y-101230647D01*
X148150076Y-101617695D02*
X148150076Y-100804895D01*
X148459714Y-100804895D01*
X148537123Y-100843600D01*
X148575828Y-100882304D01*
X148614533Y-100959714D01*
X148614533Y-101075828D01*
X148575828Y-101153238D01*
X148537123Y-101191942D01*
X148459714Y-101230647D01*
X148150076Y-101230647D01*
X149349923Y-100804895D02*
X148962876Y-100804895D01*
X148924171Y-101191942D01*
X148962876Y-101153238D01*
X149040285Y-101114533D01*
X149233809Y-101114533D01*
X149311219Y-101153238D01*
X149349923Y-101191942D01*
X149388628Y-101269352D01*
X149388628Y-101462876D01*
X149349923Y-101540285D01*
X149311219Y-101578990D01*
X149233809Y-101617695D01*
X149040285Y-101617695D01*
X148962876Y-101578990D01*
X148924171Y-101540285D01*
%TO.C,R4*%
X148614533Y-100117695D02*
X148343600Y-99730647D01*
X148150076Y-100117695D02*
X148150076Y-99304895D01*
X148459714Y-99304895D01*
X148537123Y-99343600D01*
X148575828Y-99382304D01*
X148614533Y-99459714D01*
X148614533Y-99575828D01*
X148575828Y-99653238D01*
X148537123Y-99691942D01*
X148459714Y-99730647D01*
X148150076Y-99730647D01*
X149311219Y-99575828D02*
X149311219Y-100117695D01*
X149117695Y-99266190D02*
X148924171Y-99846761D01*
X149427333Y-99846761D01*
%TO.C,R3*%
X145114533Y-100117695D02*
X144843600Y-99730647D01*
X144650076Y-100117695D02*
X144650076Y-99304895D01*
X144959714Y-99304895D01*
X145037123Y-99343600D01*
X145075828Y-99382304D01*
X145114533Y-99459714D01*
X145114533Y-99575828D01*
X145075828Y-99653238D01*
X145037123Y-99691942D01*
X144959714Y-99730647D01*
X144650076Y-99730647D01*
X145385466Y-99304895D02*
X145888628Y-99304895D01*
X145617695Y-99614533D01*
X145733809Y-99614533D01*
X145811219Y-99653238D01*
X145849923Y-99691942D01*
X145888628Y-99769352D01*
X145888628Y-99962876D01*
X145849923Y-100040285D01*
X145811219Y-100078990D01*
X145733809Y-100117695D01*
X145501580Y-100117695D01*
X145424171Y-100078990D01*
X145385466Y-100040285D01*
%TO.C,R1*%
X148614533Y-89867695D02*
X148343600Y-89480647D01*
X148150076Y-89867695D02*
X148150076Y-89054895D01*
X148459714Y-89054895D01*
X148537123Y-89093600D01*
X148575828Y-89132304D01*
X148614533Y-89209714D01*
X148614533Y-89325828D01*
X148575828Y-89403238D01*
X148537123Y-89441942D01*
X148459714Y-89480647D01*
X148150076Y-89480647D01*
X149388628Y-89867695D02*
X148924171Y-89867695D01*
X149156400Y-89867695D02*
X149156400Y-89054895D01*
X149078990Y-89171009D01*
X149001580Y-89248419D01*
X148924171Y-89287123D01*
%TO.C,D2*%
X133150076Y-102617695D02*
X133150076Y-101804895D01*
X133343600Y-101804895D01*
X133459714Y-101843600D01*
X133537123Y-101921009D01*
X133575828Y-101998419D01*
X133614533Y-102153238D01*
X133614533Y-102269352D01*
X133575828Y-102424171D01*
X133537123Y-102501580D01*
X133459714Y-102578990D01*
X133343600Y-102617695D01*
X133150076Y-102617695D01*
X133924171Y-101882304D02*
X133962876Y-101843600D01*
X134040285Y-101804895D01*
X134233809Y-101804895D01*
X134311219Y-101843600D01*
X134349923Y-101882304D01*
X134388628Y-101959714D01*
X134388628Y-102037123D01*
X134349923Y-102153238D01*
X133885466Y-102617695D01*
X134388628Y-102617695D01*
%TO.C,D1*%
X133150076Y-110617695D02*
X133150076Y-109804895D01*
X133343600Y-109804895D01*
X133459714Y-109843600D01*
X133537123Y-109921009D01*
X133575828Y-109998419D01*
X133614533Y-110153238D01*
X133614533Y-110269352D01*
X133575828Y-110424171D01*
X133537123Y-110501580D01*
X133459714Y-110578990D01*
X133343600Y-110617695D01*
X133150076Y-110617695D01*
X134388628Y-110617695D02*
X133924171Y-110617695D01*
X134156400Y-110617695D02*
X134156400Y-109804895D01*
X134078990Y-109921009D01*
X134001580Y-109998419D01*
X133924171Y-110037123D01*
%TO.C,C15*%
X141540285Y-100522514D02*
X141578990Y-100561219D01*
X141617695Y-100677333D01*
X141617695Y-100754742D01*
X141578990Y-100870857D01*
X141501580Y-100948266D01*
X141424171Y-100986971D01*
X141269352Y-101025676D01*
X141153238Y-101025676D01*
X140998419Y-100986971D01*
X140921009Y-100948266D01*
X140843600Y-100870857D01*
X140804895Y-100754742D01*
X140804895Y-100677333D01*
X140843600Y-100561219D01*
X140882304Y-100522514D01*
X141617695Y-99748419D02*
X141617695Y-100212876D01*
X141617695Y-99980647D02*
X140804895Y-99980647D01*
X140921009Y-100058057D01*
X140998419Y-100135466D01*
X141037123Y-100212876D01*
X140804895Y-99013028D02*
X140804895Y-99400076D01*
X141191942Y-99438780D01*
X141153238Y-99400076D01*
X141114533Y-99322666D01*
X141114533Y-99129142D01*
X141153238Y-99051733D01*
X141191942Y-99013028D01*
X141269352Y-98974323D01*
X141462876Y-98974323D01*
X141540285Y-99013028D01*
X141578990Y-99051733D01*
X141617695Y-99129142D01*
X141617695Y-99322666D01*
X141578990Y-99400076D01*
X141540285Y-99438780D01*
%TO.C,C13*%
X142790285Y-105022514D02*
X142828990Y-105061219D01*
X142867695Y-105177333D01*
X142867695Y-105254742D01*
X142828990Y-105370857D01*
X142751580Y-105448266D01*
X142674171Y-105486971D01*
X142519352Y-105525676D01*
X142403238Y-105525676D01*
X142248419Y-105486971D01*
X142171009Y-105448266D01*
X142093600Y-105370857D01*
X142054895Y-105254742D01*
X142054895Y-105177333D01*
X142093600Y-105061219D01*
X142132304Y-105022514D01*
X142867695Y-104248419D02*
X142867695Y-104712876D01*
X142867695Y-104480647D02*
X142054895Y-104480647D01*
X142171009Y-104558057D01*
X142248419Y-104635466D01*
X142287123Y-104712876D01*
X142054895Y-103977485D02*
X142054895Y-103474323D01*
X142364533Y-103745257D01*
X142364533Y-103629142D01*
X142403238Y-103551733D01*
X142441942Y-103513028D01*
X142519352Y-103474323D01*
X142712876Y-103474323D01*
X142790285Y-103513028D01*
X142828990Y-103551733D01*
X142867695Y-103629142D01*
X142867695Y-103861371D01*
X142828990Y-103938780D01*
X142790285Y-103977485D01*
%TO.C,C12*%
X142790285Y-108522514D02*
X142828990Y-108561219D01*
X142867695Y-108677333D01*
X142867695Y-108754742D01*
X142828990Y-108870857D01*
X142751580Y-108948266D01*
X142674171Y-108986971D01*
X142519352Y-109025676D01*
X142403238Y-109025676D01*
X142248419Y-108986971D01*
X142171009Y-108948266D01*
X142093600Y-108870857D01*
X142054895Y-108754742D01*
X142054895Y-108677333D01*
X142093600Y-108561219D01*
X142132304Y-108522514D01*
X142867695Y-107748419D02*
X142867695Y-108212876D01*
X142867695Y-107980647D02*
X142054895Y-107980647D01*
X142171009Y-108058057D01*
X142248419Y-108135466D01*
X142287123Y-108212876D01*
X142132304Y-107438780D02*
X142093600Y-107400076D01*
X142054895Y-107322666D01*
X142054895Y-107129142D01*
X142093600Y-107051733D01*
X142132304Y-107013028D01*
X142209714Y-106974323D01*
X142287123Y-106974323D01*
X142403238Y-107013028D01*
X142867695Y-107477485D01*
X142867695Y-106974323D01*
%TO.C,C11*%
X160727485Y-107540285D02*
X160688780Y-107578990D01*
X160572666Y-107617695D01*
X160495257Y-107617695D01*
X160379142Y-107578990D01*
X160301733Y-107501580D01*
X160263028Y-107424171D01*
X160224323Y-107269352D01*
X160224323Y-107153238D01*
X160263028Y-106998419D01*
X160301733Y-106921009D01*
X160379142Y-106843600D01*
X160495257Y-106804895D01*
X160572666Y-106804895D01*
X160688780Y-106843600D01*
X160727485Y-106882304D01*
X161501580Y-107617695D02*
X161037123Y-107617695D01*
X161269352Y-107617695D02*
X161269352Y-106804895D01*
X161191942Y-106921009D01*
X161114533Y-106998419D01*
X161037123Y-107037123D01*
X162275676Y-107617695D02*
X161811219Y-107617695D01*
X162043447Y-107617695D02*
X162043447Y-106804895D01*
X161966038Y-106921009D01*
X161888628Y-106998419D01*
X161811219Y-107037123D01*
%TO.C,C10*%
X160727485Y-96290285D02*
X160688780Y-96328990D01*
X160572666Y-96367695D01*
X160495257Y-96367695D01*
X160379142Y-96328990D01*
X160301733Y-96251580D01*
X160263028Y-96174171D01*
X160224323Y-96019352D01*
X160224323Y-95903238D01*
X160263028Y-95748419D01*
X160301733Y-95671009D01*
X160379142Y-95593600D01*
X160495257Y-95554895D01*
X160572666Y-95554895D01*
X160688780Y-95593600D01*
X160727485Y-95632304D01*
X161501580Y-96367695D02*
X161037123Y-96367695D01*
X161269352Y-96367695D02*
X161269352Y-95554895D01*
X161191942Y-95671009D01*
X161114533Y-95748419D01*
X161037123Y-95787123D01*
X162004742Y-95554895D02*
X162082152Y-95554895D01*
X162159561Y-95593600D01*
X162198266Y-95632304D01*
X162236971Y-95709714D01*
X162275676Y-95864533D01*
X162275676Y-96058057D01*
X162236971Y-96212876D01*
X162198266Y-96290285D01*
X162159561Y-96328990D01*
X162082152Y-96367695D01*
X162004742Y-96367695D01*
X161927333Y-96328990D01*
X161888628Y-96290285D01*
X161849923Y-96212876D01*
X161811219Y-96058057D01*
X161811219Y-95864533D01*
X161849923Y-95709714D01*
X161888628Y-95632304D01*
X161927333Y-95593600D01*
X162004742Y-95554895D01*
%TO.C,C9*%
X151614533Y-107790285D02*
X151575828Y-107828990D01*
X151459714Y-107867695D01*
X151382304Y-107867695D01*
X151266190Y-107828990D01*
X151188780Y-107751580D01*
X151150076Y-107674171D01*
X151111371Y-107519352D01*
X151111371Y-107403238D01*
X151150076Y-107248419D01*
X151188780Y-107171009D01*
X151266190Y-107093600D01*
X151382304Y-107054895D01*
X151459714Y-107054895D01*
X151575828Y-107093600D01*
X151614533Y-107132304D01*
X152001580Y-107867695D02*
X152156400Y-107867695D01*
X152233809Y-107828990D01*
X152272514Y-107790285D01*
X152349923Y-107674171D01*
X152388628Y-107519352D01*
X152388628Y-107209714D01*
X152349923Y-107132304D01*
X152311219Y-107093600D01*
X152233809Y-107054895D01*
X152078990Y-107054895D01*
X152001580Y-107093600D01*
X151962876Y-107132304D01*
X151924171Y-107209714D01*
X151924171Y-107403238D01*
X151962876Y-107480647D01*
X152001580Y-107519352D01*
X152078990Y-107558057D01*
X152233809Y-107558057D01*
X152311219Y-107519352D01*
X152349923Y-107480647D01*
X152388628Y-107403238D01*
%TO.C,C8*%
X151614533Y-96040285D02*
X151575828Y-96078990D01*
X151459714Y-96117695D01*
X151382304Y-96117695D01*
X151266190Y-96078990D01*
X151188780Y-96001580D01*
X151150076Y-95924171D01*
X151111371Y-95769352D01*
X151111371Y-95653238D01*
X151150076Y-95498419D01*
X151188780Y-95421009D01*
X151266190Y-95343600D01*
X151382304Y-95304895D01*
X151459714Y-95304895D01*
X151575828Y-95343600D01*
X151614533Y-95382304D01*
X152078990Y-95653238D02*
X152001580Y-95614533D01*
X151962876Y-95575828D01*
X151924171Y-95498419D01*
X151924171Y-95459714D01*
X151962876Y-95382304D01*
X152001580Y-95343600D01*
X152078990Y-95304895D01*
X152233809Y-95304895D01*
X152311219Y-95343600D01*
X152349923Y-95382304D01*
X152388628Y-95459714D01*
X152388628Y-95498419D01*
X152349923Y-95575828D01*
X152311219Y-95614533D01*
X152233809Y-95653238D01*
X152078990Y-95653238D01*
X152001580Y-95691942D01*
X151962876Y-95730647D01*
X151924171Y-95808057D01*
X151924171Y-95962876D01*
X151962876Y-96040285D01*
X152001580Y-96078990D01*
X152078990Y-96117695D01*
X152233809Y-96117695D01*
X152311219Y-96078990D01*
X152349923Y-96040285D01*
X152388628Y-95962876D01*
X152388628Y-95808057D01*
X152349923Y-95730647D01*
X152311219Y-95691942D01*
X152233809Y-95653238D01*
%TO.C,C7*%
D12*
X158114533Y-111540285D02*
X158075828Y-111578990D01*
X157959714Y-111617695D01*
X157882304Y-111617695D01*
X157766190Y-111578990D01*
X157688780Y-111501580D01*
X157650076Y-111424171D01*
X157611371Y-111269352D01*
X157611371Y-111153238D01*
X157650076Y-110998419D01*
X157688780Y-110921009D01*
X157766190Y-110843600D01*
X157882304Y-110804895D01*
X157959714Y-110804895D01*
X158075828Y-110843600D01*
X158114533Y-110882304D01*
X158385466Y-110804895D02*
X158927333Y-110804895D01*
X158578990Y-111617695D01*
%TO.C,C6*%
D11*
X154589533Y-101540285D02*
X154550828Y-101578990D01*
X154434714Y-101617695D01*
X154357304Y-101617695D01*
X154241190Y-101578990D01*
X154163780Y-101501580D01*
X154125076Y-101424171D01*
X154086371Y-101269352D01*
X154086371Y-101153238D01*
X154125076Y-100998419D01*
X154163780Y-100921009D01*
X154241190Y-100843600D01*
X154357304Y-100804895D01*
X154434714Y-100804895D01*
X154550828Y-100843600D01*
X154589533Y-100882304D01*
X155286219Y-100804895D02*
X155131400Y-100804895D01*
X155053990Y-100843600D01*
X155015285Y-100882304D01*
X154937876Y-100998419D01*
X154899171Y-101153238D01*
X154899171Y-101462876D01*
X154937876Y-101540285D01*
X154976580Y-101578990D01*
X155053990Y-101617695D01*
X155208809Y-101617695D01*
X155286219Y-101578990D01*
X155324923Y-101540285D01*
X155363628Y-101462876D01*
X155363628Y-101269352D01*
X155324923Y-101191942D01*
X155286219Y-101153238D01*
X155208809Y-101114533D01*
X155053990Y-101114533D01*
X154976580Y-101153238D01*
X154937876Y-101191942D01*
X154899171Y-101269352D01*
%TO.C,C5*%
X158114533Y-100040285D02*
X158075828Y-100078990D01*
X157959714Y-100117695D01*
X157882304Y-100117695D01*
X157766190Y-100078990D01*
X157688780Y-100001580D01*
X157650076Y-99924171D01*
X157611371Y-99769352D01*
X157611371Y-99653238D01*
X157650076Y-99498419D01*
X157688780Y-99421009D01*
X157766190Y-99343600D01*
X157882304Y-99304895D01*
X157959714Y-99304895D01*
X158075828Y-99343600D01*
X158114533Y-99382304D01*
X158849923Y-99304895D02*
X158462876Y-99304895D01*
X158424171Y-99691942D01*
X158462876Y-99653238D01*
X158540285Y-99614533D01*
X158733809Y-99614533D01*
X158811219Y-99653238D01*
X158849923Y-99691942D01*
X158888628Y-99769352D01*
X158888628Y-99962876D01*
X158849923Y-100040285D01*
X158811219Y-100078990D01*
X158733809Y-100117695D01*
X158540285Y-100117695D01*
X158462876Y-100078990D01*
X158424171Y-100040285D01*
%TO.C,C4*%
X154614533Y-90040285D02*
X154575828Y-90078990D01*
X154459714Y-90117695D01*
X154382304Y-90117695D01*
X154266190Y-90078990D01*
X154188780Y-90001580D01*
X154150076Y-89924171D01*
X154111371Y-89769352D01*
X154111371Y-89653238D01*
X154150076Y-89498419D01*
X154188780Y-89421009D01*
X154266190Y-89343600D01*
X154382304Y-89304895D01*
X154459714Y-89304895D01*
X154575828Y-89343600D01*
X154614533Y-89382304D01*
X155311219Y-89575828D02*
X155311219Y-90117695D01*
X155117695Y-89266190D02*
X154924171Y-89846761D01*
X155427333Y-89846761D01*
%TO.C,C3*%
X148614533Y-111540285D02*
X148575828Y-111578990D01*
X148459714Y-111617695D01*
X148382304Y-111617695D01*
X148266190Y-111578990D01*
X148188780Y-111501580D01*
X148150076Y-111424171D01*
X148111371Y-111269352D01*
X148111371Y-111153238D01*
X148150076Y-110998419D01*
X148188780Y-110921009D01*
X148266190Y-110843600D01*
X148382304Y-110804895D01*
X148459714Y-110804895D01*
X148575828Y-110843600D01*
X148614533Y-110882304D01*
X148885466Y-110804895D02*
X149388628Y-110804895D01*
X149117695Y-111114533D01*
X149233809Y-111114533D01*
X149311219Y-111153238D01*
X149349923Y-111191942D01*
X149388628Y-111269352D01*
X149388628Y-111462876D01*
X149349923Y-111540285D01*
X149311219Y-111578990D01*
X149233809Y-111617695D01*
X149001580Y-111617695D01*
X148924171Y-111578990D01*
X148885466Y-111540285D01*
%TO.C,C2*%
X145114533Y-101540285D02*
X145075828Y-101578990D01*
X144959714Y-101617695D01*
X144882304Y-101617695D01*
X144766190Y-101578990D01*
X144688780Y-101501580D01*
X144650076Y-101424171D01*
X144611371Y-101269352D01*
X144611371Y-101153238D01*
X144650076Y-100998419D01*
X144688780Y-100921009D01*
X144766190Y-100843600D01*
X144882304Y-100804895D01*
X144959714Y-100804895D01*
X145075828Y-100843600D01*
X145114533Y-100882304D01*
X145424171Y-100882304D02*
X145462876Y-100843600D01*
X145540285Y-100804895D01*
X145733809Y-100804895D01*
X145811219Y-100843600D01*
X145849923Y-100882304D01*
X145888628Y-100959714D01*
X145888628Y-101037123D01*
X145849923Y-101153238D01*
X145385466Y-101617695D01*
X145888628Y-101617695D01*
%TO.C,C1*%
X145114533Y-89790285D02*
X145075828Y-89828990D01*
X144959714Y-89867695D01*
X144882304Y-89867695D01*
X144766190Y-89828990D01*
X144688780Y-89751580D01*
X144650076Y-89674171D01*
X144611371Y-89519352D01*
X144611371Y-89403238D01*
X144650076Y-89248419D01*
X144688780Y-89171009D01*
X144766190Y-89093600D01*
X144882304Y-89054895D01*
X144959714Y-89054895D01*
X145075828Y-89093600D01*
X145114533Y-89132304D01*
X145888628Y-89867695D02*
X145424171Y-89867695D01*
X145656400Y-89867695D02*
X145656400Y-89054895D01*
X145578990Y-89171009D01*
X145501580Y-89248419D01*
X145424171Y-89287123D01*
%TO.C,J1*%
X130229066Y-92554895D02*
X130229066Y-93135466D01*
X130190361Y-93251580D01*
X130112952Y-93328990D01*
X129996838Y-93367695D01*
X129919428Y-93367695D01*
X131041866Y-93367695D02*
X130577409Y-93367695D01*
X130809638Y-93367695D02*
X130809638Y-92554895D01*
X130732228Y-92671009D01*
X130654819Y-92748419D01*
X130577409Y-92787123D01*
%TO.C,U4*%
X152304895Y-103369276D02*
X152962876Y-103369276D01*
X153040285Y-103330571D01*
X153078990Y-103291866D01*
X153117695Y-103214457D01*
X153117695Y-103059638D01*
X153078990Y-102982228D01*
X153040285Y-102943523D01*
X152962876Y-102904819D01*
X152304895Y-102904819D01*
X152575828Y-102169428D02*
X153117695Y-102169428D01*
X152266190Y-102362952D02*
X152846761Y-102556476D01*
X152846761Y-102053314D01*
%TO.C,U3*%
X152304895Y-91619276D02*
X152962876Y-91619276D01*
X153040285Y-91580571D01*
X153078990Y-91541866D01*
X153117695Y-91464457D01*
X153117695Y-91309638D01*
X153078990Y-91232228D01*
X153040285Y-91193523D01*
X152962876Y-91154819D01*
X152304895Y-91154819D01*
X152304895Y-90845180D02*
X152304895Y-90342019D01*
X152614533Y-90612952D01*
X152614533Y-90496838D01*
X152653238Y-90419428D01*
X152691942Y-90380723D01*
X152769352Y-90342019D01*
X152962876Y-90342019D01*
X153040285Y-90380723D01*
X153078990Y-90419428D01*
X153117695Y-90496838D01*
X153117695Y-90729066D01*
X153078990Y-90806476D01*
X153040285Y-90845180D01*
%TO.C,U2*%
X142804895Y-91369276D02*
X143462876Y-91369276D01*
X143540285Y-91330571D01*
X143578990Y-91291866D01*
X143617695Y-91214457D01*
X143617695Y-91059638D01*
X143578990Y-90982228D01*
X143540285Y-90943523D01*
X143462876Y-90904819D01*
X142804895Y-90904819D01*
X142882304Y-90556476D02*
X142843600Y-90517771D01*
X142804895Y-90440361D01*
X142804895Y-90246838D01*
X142843600Y-90169428D01*
X142882304Y-90130723D01*
X142959714Y-90092019D01*
X143037123Y-90092019D01*
X143153238Y-90130723D01*
X143617695Y-90595180D01*
X143617695Y-90092019D01*
%TO.C,U1*%
X142804895Y-103119276D02*
X143462876Y-103119276D01*
X143540285Y-103080571D01*
X143578990Y-103041866D01*
X143617695Y-102964457D01*
X143617695Y-102809638D01*
X143578990Y-102732228D01*
X143540285Y-102693523D01*
X143462876Y-102654819D01*
X142804895Y-102654819D01*
X143617695Y-101842019D02*
X143617695Y-102306476D01*
X143617695Y-102074247D02*
X142804895Y-102074247D01*
X142921009Y-102151657D01*
X142998419Y-102229066D01*
X143037123Y-102306476D01*
%TD*%
M02*
