%TF.GenerationSoftware,KiCad,Pcbnew,(5.1.10)-1*%
%TF.CreationDate,2021-07-30T22:48:11+05:30*%
%TF.ProjectId,Logic Board,4c6f6769-6320-4426-9f61-72642e6b6963,rev?*%
%TF.SameCoordinates,Original*%
%TF.FileFunction,Copper,L2,Bot*%
%TF.FilePolarity,Positive*%
%FSLAX46Y46*%
G04 Gerber Fmt 4.6, Leading zero omitted, Abs format (unit mm)*
G04 Created by KiCad (PCBNEW (5.1.10)-1) date 2021-07-30 22:48:11*
%MOMM*%
%LPD*%
G01*
G04 APERTURE LIST*
%TA.AperFunction,ComponentPad*%
%ADD10O,1.700000X1.700000*%
%TD*%
%TA.AperFunction,ComponentPad*%
%ADD11R,1.700000X1.700000*%
%TD*%
%TA.AperFunction,ViaPad*%
%ADD12C,0.800000*%
%TD*%
%TA.AperFunction,Conductor*%
%ADD13C,0.250000*%
%TD*%
%TA.AperFunction,Conductor*%
%ADD14C,0.127000*%
%TD*%
%TA.AperFunction,Conductor*%
%ADD15C,0.100000*%
%TD*%
G04 APERTURE END LIST*
D10*
%TO.P,J1,10*%
%TO.N,GND*%
X126960000Y-105660000D03*
%TO.P,J1,9*%
%TO.N,VCC*%
X129500000Y-105660000D03*
%TO.P,J1,8*%
%TO.N,STAGE_2*%
X126960000Y-103120000D03*
%TO.P,J1,7*%
%TO.N,TIMER*%
X129500000Y-103120000D03*
%TO.P,J1,6*%
%TO.N,STAGE_1*%
X126960000Y-100580000D03*
%TO.P,J1,5*%
%TO.N,CHARGE*%
X129500000Y-100580000D03*
%TO.P,J1,4*%
%TO.N,/JP1*%
X126960000Y-98040000D03*
%TO.P,J1,3*%
%TO.N,GND*%
X129500000Y-98040000D03*
%TO.P,J1,2*%
%TO.N,/SW1*%
X126960000Y-95500000D03*
D11*
%TO.P,J1,1*%
%TO.N,/SW2*%
X129500000Y-95500000D03*
%TD*%
D12*
%TO.N,GND*%
X161250000Y-97000000D03*
X161250000Y-98250000D03*
X161250000Y-99500000D03*
X142500000Y-103500000D03*
X136000000Y-97250000D03*
X138500000Y-97250000D03*
X142000000Y-91750000D03*
X161500000Y-109500000D03*
X151000000Y-110000000D03*
%TO.N,CHARGE*%
X150750000Y-90750000D03*
X142615000Y-95135000D03*
%TO.N,STAGE_1*%
X156000000Y-92750000D03*
X146385000Y-106885000D03*
%TO.N,+5V*%
X147000000Y-100750000D03*
X141000000Y-102500000D03*
%TO.N,STAGE_2*%
X155865000Y-106885000D03*
%TO.N,TIMER*%
X156250000Y-95500000D03*
X151750000Y-102500000D03*
X131500000Y-110750000D03*
%TO.N,/JP1*%
X142500000Y-97250000D03*
X151250000Y-98250000D03*
X142500000Y-110000000D03*
X151875000Y-108875000D03*
%TD*%
D13*
%TO.N,CHARGE*%
X142615000Y-95135000D02*
X149865000Y-95135000D01*
X150750000Y-94250000D02*
X150750000Y-90750000D01*
X149865000Y-95135000D02*
X150750000Y-94250000D01*
X134945000Y-95135000D02*
X129500000Y-100580000D01*
X142615000Y-95135000D02*
X134945000Y-95135000D01*
%TO.N,STAGE_1*%
X147725001Y-105544999D02*
X147725001Y-103524999D01*
X146385000Y-106885000D02*
X147725001Y-105544999D01*
X147725001Y-103524999D02*
X152500000Y-98750000D01*
X152500000Y-96250000D02*
X156000000Y-92750000D01*
X152500000Y-98750000D02*
X152500000Y-96250000D01*
X128135001Y-101755001D02*
X126960000Y-100580000D01*
X128135001Y-103494003D02*
X128135001Y-101755001D01*
X128935999Y-104295001D02*
X128135001Y-103494003D01*
X136304003Y-110725001D02*
X129874003Y-104295001D01*
X152600001Y-109223001D02*
X151098001Y-110725001D01*
X129874003Y-104295001D02*
X128935999Y-104295001D01*
X151098001Y-110725001D02*
X136304003Y-110725001D01*
X152600001Y-108526999D02*
X152600001Y-109223001D01*
X150958002Y-106885000D02*
X152600001Y-108526999D01*
X146385000Y-106885000D02*
X150958002Y-106885000D01*
%TO.N,+5V*%
X141000000Y-102500000D02*
X142750000Y-100750000D01*
X142750000Y-100750000D02*
X147000000Y-100750000D01*
%TO.N,STAGE_2*%
X128135001Y-106135001D02*
X128135001Y-104295001D01*
X133175010Y-111175010D02*
X128135001Y-106135001D01*
X128135001Y-104295001D02*
X126960000Y-103120000D01*
X151574990Y-111175010D02*
X133175010Y-111175010D01*
X155865000Y-106885000D02*
X151574990Y-111175010D01*
%TO.N,TIMER*%
X151750000Y-102500000D02*
X155000000Y-102500000D01*
X156250000Y-101250000D02*
X156250000Y-95500000D01*
X155000000Y-102500000D02*
X156250000Y-101250000D01*
X152197982Y-111625020D02*
X132375020Y-111625020D01*
X156590001Y-107233001D02*
X152197982Y-111625020D01*
X156590001Y-104090001D02*
X156590001Y-107233001D01*
X155000000Y-102500000D02*
X156590001Y-104090001D01*
X132375020Y-111625020D02*
X131500000Y-110750000D01*
X131500000Y-110750000D02*
X131500000Y-110750000D01*
%TO.N,/JP1*%
X143625000Y-108875000D02*
X142500000Y-110000000D01*
X151875000Y-108875000D02*
X143625000Y-108875000D01*
X143500000Y-98250000D02*
X142500000Y-97250000D01*
X151250000Y-98250000D02*
X143500000Y-98250000D01*
X128135001Y-99215001D02*
X126960000Y-98040000D01*
X128135001Y-100954003D02*
X128135001Y-99215001D01*
X137994999Y-101755001D02*
X128935999Y-101755001D01*
X128935999Y-101755001D02*
X128135001Y-100954003D01*
X142500000Y-97250000D02*
X137994999Y-101755001D01*
X141000000Y-104760002D02*
X137994999Y-101755001D01*
X141000000Y-108500000D02*
X141000000Y-104760002D01*
X142500000Y-110000000D02*
X141000000Y-108500000D01*
%TD*%
D14*
%TO.N,GND*%
X167515857Y-88394723D02*
X168012067Y-88544537D01*
X168469731Y-88787880D01*
X168871408Y-89115482D01*
X169201806Y-89514864D01*
X169448337Y-89970814D01*
X169601612Y-90465967D01*
X169657489Y-90997602D01*
X169657501Y-91000907D01*
X169657500Y-109983253D01*
X169605277Y-110515857D01*
X169455463Y-111012067D01*
X169212118Y-111469733D01*
X168884521Y-111871406D01*
X168485136Y-112201806D01*
X168029186Y-112448337D01*
X167534035Y-112601612D01*
X167002398Y-112657489D01*
X166999380Y-112657500D01*
X128016747Y-112657500D01*
X127484143Y-112605277D01*
X126987933Y-112455463D01*
X126530267Y-112212118D01*
X126128594Y-111884521D01*
X125798194Y-111485136D01*
X125551663Y-111029186D01*
X125398388Y-110534035D01*
X125342511Y-110002398D01*
X125342500Y-109999380D01*
X125342500Y-109817443D01*
X126146468Y-109817443D01*
X126146468Y-110182557D01*
X126217699Y-110540655D01*
X126357422Y-110877976D01*
X126560268Y-111181557D01*
X126818443Y-111439732D01*
X127122024Y-111642578D01*
X127459345Y-111782301D01*
X127817443Y-111853532D01*
X128182557Y-111853532D01*
X128540655Y-111782301D01*
X128877976Y-111642578D01*
X129181557Y-111439732D01*
X129439732Y-111181557D01*
X129642578Y-110877976D01*
X129782301Y-110540655D01*
X129853532Y-110182557D01*
X129853532Y-109817443D01*
X129782301Y-109459345D01*
X129642578Y-109122024D01*
X129439732Y-108818443D01*
X129181557Y-108560268D01*
X128877976Y-108357422D01*
X128540655Y-108217699D01*
X128182557Y-108146468D01*
X127817443Y-108146468D01*
X127459345Y-108217699D01*
X127122024Y-108357422D01*
X126818443Y-108560268D01*
X126560268Y-108818443D01*
X126357422Y-109122024D01*
X126217699Y-109459345D01*
X126146468Y-109817443D01*
X125342500Y-109817443D01*
X125342500Y-105835302D01*
X125934374Y-105835302D01*
X125945359Y-105890531D01*
X126009829Y-106084048D01*
X126110814Y-106261269D01*
X126244433Y-106415384D01*
X126405551Y-106540470D01*
X126587976Y-106631720D01*
X126784698Y-106685627D01*
X126947300Y-106652798D01*
X126947300Y-105672700D01*
X125967206Y-105672700D01*
X125934374Y-105835302D01*
X125342500Y-105835302D01*
X125342500Y-105484698D01*
X125934374Y-105484698D01*
X125967206Y-105647300D01*
X126947300Y-105647300D01*
X126947300Y-104667202D01*
X126784698Y-104634373D01*
X126587976Y-104688280D01*
X126405551Y-104779530D01*
X126244433Y-104904616D01*
X126110814Y-105058731D01*
X126009829Y-105235952D01*
X125945359Y-105429469D01*
X125934374Y-105484698D01*
X125342500Y-105484698D01*
X125342500Y-97925011D01*
X125792500Y-97925011D01*
X125792500Y-98154989D01*
X125837366Y-98380547D01*
X125925375Y-98593019D01*
X126053144Y-98784238D01*
X126215762Y-98946856D01*
X126406981Y-99074625D01*
X126619453Y-99162634D01*
X126845011Y-99207500D01*
X127074989Y-99207500D01*
X127300547Y-99162634D01*
X127411066Y-99116855D01*
X127692502Y-99398291D01*
X127692502Y-99665302D01*
X127513019Y-99545375D01*
X127300547Y-99457366D01*
X127074989Y-99412500D01*
X126845011Y-99412500D01*
X126619453Y-99457366D01*
X126406981Y-99545375D01*
X126215762Y-99673144D01*
X126053144Y-99835762D01*
X125925375Y-100026981D01*
X125837366Y-100239453D01*
X125792500Y-100465011D01*
X125792500Y-100694989D01*
X125837366Y-100920547D01*
X125925375Y-101133019D01*
X126053144Y-101324238D01*
X126215762Y-101486856D01*
X126406981Y-101614625D01*
X126619453Y-101702634D01*
X126845011Y-101747500D01*
X127074989Y-101747500D01*
X127300547Y-101702634D01*
X127411066Y-101656855D01*
X127692502Y-101938291D01*
X127692502Y-102205302D01*
X127513019Y-102085375D01*
X127300547Y-101997366D01*
X127074989Y-101952500D01*
X126845011Y-101952500D01*
X126619453Y-101997366D01*
X126406981Y-102085375D01*
X126215762Y-102213144D01*
X126053144Y-102375762D01*
X125925375Y-102566981D01*
X125837366Y-102779453D01*
X125792500Y-103005011D01*
X125792500Y-103234989D01*
X125837366Y-103460547D01*
X125925375Y-103673019D01*
X126053144Y-103864238D01*
X126215762Y-104026856D01*
X126406981Y-104154625D01*
X126619453Y-104242634D01*
X126845011Y-104287500D01*
X127074989Y-104287500D01*
X127300547Y-104242634D01*
X127411066Y-104196855D01*
X127692502Y-104478291D01*
X127692502Y-104924148D01*
X127675567Y-104904616D01*
X127514449Y-104779530D01*
X127332024Y-104688280D01*
X127135302Y-104634373D01*
X126972700Y-104667202D01*
X126972700Y-105647300D01*
X126992700Y-105647300D01*
X126992700Y-105672700D01*
X126972700Y-105672700D01*
X126972700Y-106652798D01*
X127135302Y-106685627D01*
X127332024Y-106631720D01*
X127514449Y-106540470D01*
X127675567Y-106415384D01*
X127742104Y-106338641D01*
X127765296Y-106382030D01*
X127783522Y-106404238D01*
X127820592Y-106449410D01*
X127837482Y-106463271D01*
X131410463Y-110036253D01*
X131290713Y-110060073D01*
X131160136Y-110114159D01*
X131042620Y-110192681D01*
X130942681Y-110292620D01*
X130864159Y-110410136D01*
X130810073Y-110540713D01*
X130782500Y-110679332D01*
X130782500Y-110820668D01*
X130810073Y-110959287D01*
X130864159Y-111089864D01*
X130942681Y-111207380D01*
X131042620Y-111307319D01*
X131160136Y-111385841D01*
X131290713Y-111439927D01*
X131429332Y-111467500D01*
X131570668Y-111467500D01*
X131588219Y-111464009D01*
X132046755Y-111922545D01*
X132060611Y-111939429D01*
X132077495Y-111953285D01*
X132127990Y-111994725D01*
X132139352Y-112000798D01*
X132204863Y-112035815D01*
X132288275Y-112061117D01*
X132353283Y-112067520D01*
X132353285Y-112067520D01*
X132375019Y-112069661D01*
X132396753Y-112067520D01*
X152176248Y-112067520D01*
X152197982Y-112069661D01*
X152219716Y-112067520D01*
X152219719Y-112067520D01*
X152284727Y-112061117D01*
X152368139Y-112035815D01*
X152445011Y-111994725D01*
X152512391Y-111939429D01*
X152526252Y-111922539D01*
X154631348Y-109817443D01*
X165146468Y-109817443D01*
X165146468Y-110182557D01*
X165217699Y-110540655D01*
X165357422Y-110877976D01*
X165560268Y-111181557D01*
X165818443Y-111439732D01*
X166122024Y-111642578D01*
X166459345Y-111782301D01*
X166817443Y-111853532D01*
X167182557Y-111853532D01*
X167540655Y-111782301D01*
X167877976Y-111642578D01*
X168181557Y-111439732D01*
X168439732Y-111181557D01*
X168642578Y-110877976D01*
X168782301Y-110540655D01*
X168853532Y-110182557D01*
X168853532Y-109817443D01*
X168782301Y-109459345D01*
X168642578Y-109122024D01*
X168439732Y-108818443D01*
X168181557Y-108560268D01*
X167877976Y-108357422D01*
X167540655Y-108217699D01*
X167182557Y-108146468D01*
X166817443Y-108146468D01*
X166459345Y-108217699D01*
X166122024Y-108357422D01*
X165818443Y-108560268D01*
X165560268Y-108818443D01*
X165357422Y-109122024D01*
X165217699Y-109459345D01*
X165146468Y-109817443D01*
X154631348Y-109817443D01*
X156887526Y-107561266D01*
X156904410Y-107547410D01*
X156926214Y-107520841D01*
X156959706Y-107480031D01*
X157000796Y-107403158D01*
X157023096Y-107329641D01*
X157026098Y-107319746D01*
X157032501Y-107254738D01*
X157032501Y-107254735D01*
X157034642Y-107233001D01*
X157032501Y-107211267D01*
X157032501Y-104111735D01*
X157034642Y-104090001D01*
X157028422Y-104026856D01*
X157026098Y-104003256D01*
X157000796Y-103919844D01*
X156981747Y-103884206D01*
X156959706Y-103842971D01*
X156918266Y-103792476D01*
X156904410Y-103775592D01*
X156887527Y-103761737D01*
X155625789Y-102500000D01*
X156547526Y-101578264D01*
X156564409Y-101564409D01*
X156610725Y-101507972D01*
X156619705Y-101497030D01*
X156660795Y-101420157D01*
X156660795Y-101420156D01*
X156686097Y-101336745D01*
X156692500Y-101271737D01*
X156692500Y-101271734D01*
X156694641Y-101250000D01*
X156692500Y-101228266D01*
X156692500Y-96067262D01*
X156707380Y-96057319D01*
X156807319Y-95957380D01*
X156885841Y-95839864D01*
X156939927Y-95709287D01*
X156967500Y-95570668D01*
X156967500Y-95429332D01*
X156939927Y-95290713D01*
X156885841Y-95160136D01*
X156807319Y-95042620D01*
X156707380Y-94942681D01*
X156589864Y-94864159D01*
X156459287Y-94810073D01*
X156320668Y-94782500D01*
X156179332Y-94782500D01*
X156040713Y-94810073D01*
X155910136Y-94864159D01*
X155792620Y-94942681D01*
X155692681Y-95042620D01*
X155614159Y-95160136D01*
X155560073Y-95290713D01*
X155532500Y-95429332D01*
X155532500Y-95570668D01*
X155560073Y-95709287D01*
X155614159Y-95839864D01*
X155692681Y-95957380D01*
X155792620Y-96057319D01*
X155807501Y-96067262D01*
X155807500Y-101066710D01*
X154816711Y-102057500D01*
X152317262Y-102057500D01*
X152307319Y-102042620D01*
X152207380Y-101942681D01*
X152089864Y-101864159D01*
X151959287Y-101810073D01*
X151820668Y-101782500D01*
X151679332Y-101782500D01*
X151540713Y-101810073D01*
X151410136Y-101864159D01*
X151292620Y-101942681D01*
X151192681Y-102042620D01*
X151114159Y-102160136D01*
X151060073Y-102290713D01*
X151032500Y-102429332D01*
X151032500Y-102570668D01*
X151060073Y-102709287D01*
X151114159Y-102839864D01*
X151192681Y-102957380D01*
X151292620Y-103057319D01*
X151410136Y-103135841D01*
X151540713Y-103189927D01*
X151679332Y-103217500D01*
X151820668Y-103217500D01*
X151959287Y-103189927D01*
X152089864Y-103135841D01*
X152207380Y-103057319D01*
X152307319Y-102957380D01*
X152317262Y-102942500D01*
X154816711Y-102942500D01*
X156147501Y-104273291D01*
X156147502Y-106225399D01*
X156074287Y-106195073D01*
X155935668Y-106167500D01*
X155794332Y-106167500D01*
X155655713Y-106195073D01*
X155525136Y-106249159D01*
X155407620Y-106327681D01*
X155307681Y-106427620D01*
X155229159Y-106545136D01*
X155175073Y-106675713D01*
X155147500Y-106814332D01*
X155147500Y-106955668D01*
X155150991Y-106973220D01*
X153042501Y-109081710D01*
X153042501Y-108548732D01*
X153044642Y-108526998D01*
X153038457Y-108464206D01*
X153036098Y-108440254D01*
X153010796Y-108356842D01*
X152969706Y-108279970D01*
X152914410Y-108212590D01*
X152897522Y-108198731D01*
X151286272Y-106587481D01*
X151272411Y-106570591D01*
X151205031Y-106515295D01*
X151128159Y-106474205D01*
X151044747Y-106448903D01*
X150979739Y-106442500D01*
X150979736Y-106442500D01*
X150958002Y-106440359D01*
X150936268Y-106442500D01*
X147453290Y-106442500D01*
X148022527Y-105873263D01*
X148039410Y-105859408D01*
X148094706Y-105792028D01*
X148135796Y-105715156D01*
X148161098Y-105631744D01*
X148167501Y-105566736D01*
X148167501Y-105566735D01*
X148169642Y-105544999D01*
X148167501Y-105523262D01*
X148167501Y-103708288D01*
X152797521Y-99078268D01*
X152814409Y-99064409D01*
X152869705Y-98997029D01*
X152910795Y-98920157D01*
X152936097Y-98836745D01*
X152942500Y-98771737D01*
X152942500Y-98771735D01*
X152944641Y-98750001D01*
X152942500Y-98728267D01*
X152942500Y-96433289D01*
X155911780Y-93464009D01*
X155929332Y-93467500D01*
X156070668Y-93467500D01*
X156209287Y-93439927D01*
X156339864Y-93385841D01*
X156457380Y-93307319D01*
X156557319Y-93207380D01*
X156635841Y-93089864D01*
X156689927Y-92959287D01*
X156717500Y-92820668D01*
X156717500Y-92679332D01*
X156689927Y-92540713D01*
X156635841Y-92410136D01*
X156557319Y-92292620D01*
X156457380Y-92192681D01*
X156339864Y-92114159D01*
X156209287Y-92060073D01*
X156070668Y-92032500D01*
X155929332Y-92032500D01*
X155790713Y-92060073D01*
X155660136Y-92114159D01*
X155542620Y-92192681D01*
X155442681Y-92292620D01*
X155364159Y-92410136D01*
X155310073Y-92540713D01*
X155282500Y-92679332D01*
X155282500Y-92820668D01*
X155285991Y-92838220D01*
X152202476Y-95921735D01*
X152185592Y-95935591D01*
X152171736Y-95952475D01*
X152171735Y-95952476D01*
X152130295Y-96002971D01*
X152089205Y-96079844D01*
X152063904Y-96163255D01*
X152055359Y-96250000D01*
X152057501Y-96271744D01*
X152057500Y-98566711D01*
X147427477Y-103196734D01*
X147410593Y-103210590D01*
X147396737Y-103227474D01*
X147396736Y-103227475D01*
X147355296Y-103277970D01*
X147314206Y-103354843D01*
X147288905Y-103438254D01*
X147280360Y-103524999D01*
X147282502Y-103546743D01*
X147282501Y-105361709D01*
X146473219Y-106170991D01*
X146455668Y-106167500D01*
X146314332Y-106167500D01*
X146175713Y-106195073D01*
X146045136Y-106249159D01*
X145927620Y-106327681D01*
X145827681Y-106427620D01*
X145749159Y-106545136D01*
X145695073Y-106675713D01*
X145667500Y-106814332D01*
X145667500Y-106955668D01*
X145695073Y-107094287D01*
X145749159Y-107224864D01*
X145827681Y-107342380D01*
X145927620Y-107442319D01*
X146045136Y-107520841D01*
X146175713Y-107574927D01*
X146314332Y-107602500D01*
X146455668Y-107602500D01*
X146594287Y-107574927D01*
X146724864Y-107520841D01*
X146842380Y-107442319D01*
X146942319Y-107342380D01*
X146952262Y-107327500D01*
X150774713Y-107327500D01*
X151642076Y-108194863D01*
X151535136Y-108239159D01*
X151417620Y-108317681D01*
X151317681Y-108417620D01*
X151307738Y-108432500D01*
X143646733Y-108432500D01*
X143624999Y-108430359D01*
X143603265Y-108432500D01*
X143603263Y-108432500D01*
X143538255Y-108438903D01*
X143454843Y-108464205D01*
X143377971Y-108505295D01*
X143310591Y-108560591D01*
X143296730Y-108577481D01*
X142588220Y-109285991D01*
X142570668Y-109282500D01*
X142429332Y-109282500D01*
X142411780Y-109285991D01*
X141442500Y-108316711D01*
X141442500Y-104781735D01*
X141444641Y-104760001D01*
X141441794Y-104731097D01*
X141436097Y-104673257D01*
X141410795Y-104589845D01*
X141376720Y-104526097D01*
X141369705Y-104512972D01*
X141328265Y-104462477D01*
X141314409Y-104445593D01*
X141297525Y-104431737D01*
X139295120Y-102429332D01*
X140282500Y-102429332D01*
X140282500Y-102570668D01*
X140310073Y-102709287D01*
X140364159Y-102839864D01*
X140442681Y-102957380D01*
X140542620Y-103057319D01*
X140660136Y-103135841D01*
X140790713Y-103189927D01*
X140929332Y-103217500D01*
X141070668Y-103217500D01*
X141209287Y-103189927D01*
X141339864Y-103135841D01*
X141457380Y-103057319D01*
X141557319Y-102957380D01*
X141635841Y-102839864D01*
X141689927Y-102709287D01*
X141717500Y-102570668D01*
X141717500Y-102429332D01*
X141714009Y-102411780D01*
X142933290Y-101192500D01*
X146432738Y-101192500D01*
X146442681Y-101207380D01*
X146542620Y-101307319D01*
X146660136Y-101385841D01*
X146790713Y-101439927D01*
X146929332Y-101467500D01*
X147070668Y-101467500D01*
X147209287Y-101439927D01*
X147339864Y-101385841D01*
X147457380Y-101307319D01*
X147557319Y-101207380D01*
X147635841Y-101089864D01*
X147689927Y-100959287D01*
X147717500Y-100820668D01*
X147717500Y-100679332D01*
X147689927Y-100540713D01*
X147635841Y-100410136D01*
X147557319Y-100292620D01*
X147457380Y-100192681D01*
X147339864Y-100114159D01*
X147209287Y-100060073D01*
X147070668Y-100032500D01*
X146929332Y-100032500D01*
X146790713Y-100060073D01*
X146660136Y-100114159D01*
X146542620Y-100192681D01*
X146442681Y-100292620D01*
X146432738Y-100307500D01*
X142771734Y-100307500D01*
X142750000Y-100305359D01*
X142728266Y-100307500D01*
X142728263Y-100307500D01*
X142663255Y-100313903D01*
X142579843Y-100339205D01*
X142502971Y-100380295D01*
X142435591Y-100435591D01*
X142421735Y-100452475D01*
X141088220Y-101785991D01*
X141070668Y-101782500D01*
X140929332Y-101782500D01*
X140790713Y-101810073D01*
X140660136Y-101864159D01*
X140542620Y-101942681D01*
X140442681Y-102042620D01*
X140364159Y-102160136D01*
X140310073Y-102290713D01*
X140282500Y-102429332D01*
X139295120Y-102429332D01*
X138620788Y-101755001D01*
X142411781Y-97964009D01*
X142429332Y-97967500D01*
X142570668Y-97967500D01*
X142588219Y-97964009D01*
X143171735Y-98547525D01*
X143185591Y-98564409D01*
X143202475Y-98578265D01*
X143252971Y-98619705D01*
X143329843Y-98660795D01*
X143413255Y-98686097D01*
X143500000Y-98694641D01*
X143521737Y-98692500D01*
X150682738Y-98692500D01*
X150692681Y-98707380D01*
X150792620Y-98807319D01*
X150910136Y-98885841D01*
X151040713Y-98939927D01*
X151179332Y-98967500D01*
X151320668Y-98967500D01*
X151459287Y-98939927D01*
X151589864Y-98885841D01*
X151707380Y-98807319D01*
X151807319Y-98707380D01*
X151885841Y-98589864D01*
X151939927Y-98459287D01*
X151967500Y-98320668D01*
X151967500Y-98179332D01*
X151939927Y-98040713D01*
X151885841Y-97910136D01*
X151807319Y-97792620D01*
X151707380Y-97692681D01*
X151589864Y-97614159D01*
X151459287Y-97560073D01*
X151320668Y-97532500D01*
X151179332Y-97532500D01*
X151040713Y-97560073D01*
X150910136Y-97614159D01*
X150792620Y-97692681D01*
X150692681Y-97792620D01*
X150682738Y-97807500D01*
X143683290Y-97807500D01*
X143214009Y-97338219D01*
X143217500Y-97320668D01*
X143217500Y-97179332D01*
X143189927Y-97040713D01*
X143135841Y-96910136D01*
X143057319Y-96792620D01*
X142957380Y-96692681D01*
X142839864Y-96614159D01*
X142709287Y-96560073D01*
X142570668Y-96532500D01*
X142429332Y-96532500D01*
X142290713Y-96560073D01*
X142160136Y-96614159D01*
X142042620Y-96692681D01*
X141942681Y-96792620D01*
X141864159Y-96910136D01*
X141810073Y-97040713D01*
X141782500Y-97179332D01*
X141782500Y-97320668D01*
X141785991Y-97338219D01*
X137811710Y-101312501D01*
X130414698Y-101312501D01*
X130534625Y-101133019D01*
X130622634Y-100920547D01*
X130667500Y-100694989D01*
X130667500Y-100465011D01*
X130622634Y-100239453D01*
X130576855Y-100128934D01*
X135128290Y-95577500D01*
X142047738Y-95577500D01*
X142057681Y-95592380D01*
X142157620Y-95692319D01*
X142275136Y-95770841D01*
X142405713Y-95824927D01*
X142544332Y-95852500D01*
X142685668Y-95852500D01*
X142824287Y-95824927D01*
X142954864Y-95770841D01*
X143072380Y-95692319D01*
X143172319Y-95592380D01*
X143182262Y-95577500D01*
X149843266Y-95577500D01*
X149865000Y-95579641D01*
X149886734Y-95577500D01*
X149886737Y-95577500D01*
X149951745Y-95571097D01*
X150035157Y-95545795D01*
X150112029Y-95504705D01*
X150179409Y-95449409D01*
X150193269Y-95432520D01*
X151047526Y-94578264D01*
X151064409Y-94564409D01*
X151078551Y-94547177D01*
X151119705Y-94497030D01*
X151160795Y-94420157D01*
X151173775Y-94377366D01*
X151186097Y-94336745D01*
X151192500Y-94271737D01*
X151192500Y-94271735D01*
X151194641Y-94250001D01*
X151192500Y-94228266D01*
X151192500Y-91317262D01*
X151207380Y-91307319D01*
X151307319Y-91207380D01*
X151385841Y-91089864D01*
X151439927Y-90959287D01*
X151467500Y-90820668D01*
X151467500Y-90817443D01*
X165146468Y-90817443D01*
X165146468Y-91182557D01*
X165217699Y-91540655D01*
X165357422Y-91877976D01*
X165560268Y-92181557D01*
X165818443Y-92439732D01*
X166122024Y-92642578D01*
X166459345Y-92782301D01*
X166817443Y-92853532D01*
X167182557Y-92853532D01*
X167540655Y-92782301D01*
X167877976Y-92642578D01*
X168181557Y-92439732D01*
X168439732Y-92181557D01*
X168642578Y-91877976D01*
X168782301Y-91540655D01*
X168853532Y-91182557D01*
X168853532Y-90817443D01*
X168782301Y-90459345D01*
X168642578Y-90122024D01*
X168439732Y-89818443D01*
X168181557Y-89560268D01*
X167877976Y-89357422D01*
X167540655Y-89217699D01*
X167182557Y-89146468D01*
X166817443Y-89146468D01*
X166459345Y-89217699D01*
X166122024Y-89357422D01*
X165818443Y-89560268D01*
X165560268Y-89818443D01*
X165357422Y-90122024D01*
X165217699Y-90459345D01*
X165146468Y-90817443D01*
X151467500Y-90817443D01*
X151467500Y-90679332D01*
X151439927Y-90540713D01*
X151385841Y-90410136D01*
X151307319Y-90292620D01*
X151207380Y-90192681D01*
X151089864Y-90114159D01*
X150959287Y-90060073D01*
X150820668Y-90032500D01*
X150679332Y-90032500D01*
X150540713Y-90060073D01*
X150410136Y-90114159D01*
X150292620Y-90192681D01*
X150192681Y-90292620D01*
X150114159Y-90410136D01*
X150060073Y-90540713D01*
X150032500Y-90679332D01*
X150032500Y-90820668D01*
X150060073Y-90959287D01*
X150114159Y-91089864D01*
X150192681Y-91207380D01*
X150292620Y-91307319D01*
X150307501Y-91317262D01*
X150307500Y-94066710D01*
X149681711Y-94692500D01*
X143182262Y-94692500D01*
X143172319Y-94677620D01*
X143072380Y-94577681D01*
X142954864Y-94499159D01*
X142824287Y-94445073D01*
X142685668Y-94417500D01*
X142544332Y-94417500D01*
X142405713Y-94445073D01*
X142275136Y-94499159D01*
X142157620Y-94577681D01*
X142057681Y-94677620D01*
X142047738Y-94692500D01*
X134966734Y-94692500D01*
X134945000Y-94690359D01*
X134923266Y-94692500D01*
X134923263Y-94692500D01*
X134858255Y-94698903D01*
X134774843Y-94724205D01*
X134697970Y-94765295D01*
X134647823Y-94806449D01*
X134630591Y-94820591D01*
X134616735Y-94837475D01*
X129951066Y-99503145D01*
X129840547Y-99457366D01*
X129614989Y-99412500D01*
X129385011Y-99412500D01*
X129159453Y-99457366D01*
X128946981Y-99545375D01*
X128755762Y-99673144D01*
X128593144Y-99835762D01*
X128577501Y-99859173D01*
X128577501Y-99236734D01*
X128579642Y-99215000D01*
X128574484Y-99162634D01*
X128571098Y-99128256D01*
X128545796Y-99044844D01*
X128504706Y-98967972D01*
X128449410Y-98900592D01*
X128432520Y-98886731D01*
X128036855Y-98491066D01*
X128082634Y-98380547D01*
X128115503Y-98215302D01*
X128474374Y-98215302D01*
X128485359Y-98270531D01*
X128549829Y-98464048D01*
X128650814Y-98641269D01*
X128784433Y-98795384D01*
X128945551Y-98920470D01*
X129127976Y-99011720D01*
X129324698Y-99065627D01*
X129487300Y-99032798D01*
X129487300Y-98052700D01*
X129512700Y-98052700D01*
X129512700Y-99032798D01*
X129675302Y-99065627D01*
X129872024Y-99011720D01*
X130054449Y-98920470D01*
X130215567Y-98795384D01*
X130349186Y-98641269D01*
X130450171Y-98464048D01*
X130514641Y-98270531D01*
X130525626Y-98215302D01*
X130492794Y-98052700D01*
X129512700Y-98052700D01*
X129487300Y-98052700D01*
X128507206Y-98052700D01*
X128474374Y-98215302D01*
X128115503Y-98215302D01*
X128127500Y-98154989D01*
X128127500Y-97925011D01*
X128115504Y-97864698D01*
X128474374Y-97864698D01*
X128507206Y-98027300D01*
X129487300Y-98027300D01*
X129487300Y-97047202D01*
X129512700Y-97047202D01*
X129512700Y-98027300D01*
X130492794Y-98027300D01*
X130525626Y-97864698D01*
X130514641Y-97809469D01*
X130450171Y-97615952D01*
X130349186Y-97438731D01*
X130215567Y-97284616D01*
X130054449Y-97159530D01*
X129872024Y-97068280D01*
X129675302Y-97014373D01*
X129512700Y-97047202D01*
X129487300Y-97047202D01*
X129324698Y-97014373D01*
X129127976Y-97068280D01*
X128945551Y-97159530D01*
X128784433Y-97284616D01*
X128650814Y-97438731D01*
X128549829Y-97615952D01*
X128485359Y-97809469D01*
X128474374Y-97864698D01*
X128115504Y-97864698D01*
X128082634Y-97699453D01*
X127994625Y-97486981D01*
X127866856Y-97295762D01*
X127704238Y-97133144D01*
X127513019Y-97005375D01*
X127300547Y-96917366D01*
X127074989Y-96872500D01*
X126845011Y-96872500D01*
X126619453Y-96917366D01*
X126406981Y-97005375D01*
X126215762Y-97133144D01*
X126053144Y-97295762D01*
X125925375Y-97486981D01*
X125837366Y-97699453D01*
X125792500Y-97925011D01*
X125342500Y-97925011D01*
X125342500Y-95385011D01*
X125792500Y-95385011D01*
X125792500Y-95614989D01*
X125837366Y-95840547D01*
X125925375Y-96053019D01*
X126053144Y-96244238D01*
X126215762Y-96406856D01*
X126406981Y-96534625D01*
X126619453Y-96622634D01*
X126845011Y-96667500D01*
X127074989Y-96667500D01*
X127300547Y-96622634D01*
X127513019Y-96534625D01*
X127704238Y-96406856D01*
X127866856Y-96244238D01*
X127994625Y-96053019D01*
X128082634Y-95840547D01*
X128127500Y-95614989D01*
X128127500Y-95385011D01*
X128082634Y-95159453D01*
X127994625Y-94946981D01*
X127866856Y-94755762D01*
X127761094Y-94650000D01*
X128330964Y-94650000D01*
X128330964Y-96350000D01*
X128337094Y-96412241D01*
X128355249Y-96472090D01*
X128384731Y-96527247D01*
X128424407Y-96575593D01*
X128472753Y-96615269D01*
X128527910Y-96644751D01*
X128587759Y-96662906D01*
X128650000Y-96669036D01*
X130350000Y-96669036D01*
X130412241Y-96662906D01*
X130472090Y-96644751D01*
X130527247Y-96615269D01*
X130575593Y-96575593D01*
X130615269Y-96527247D01*
X130644751Y-96472090D01*
X130662906Y-96412241D01*
X130669036Y-96350000D01*
X130669036Y-94650000D01*
X130662906Y-94587759D01*
X130644751Y-94527910D01*
X130615269Y-94472753D01*
X130575593Y-94424407D01*
X130527247Y-94384731D01*
X130472090Y-94355249D01*
X130412241Y-94337094D01*
X130350000Y-94330964D01*
X128650000Y-94330964D01*
X128587759Y-94337094D01*
X128527910Y-94355249D01*
X128472753Y-94384731D01*
X128424407Y-94424407D01*
X128384731Y-94472753D01*
X128355249Y-94527910D01*
X128337094Y-94587759D01*
X128330964Y-94650000D01*
X127761094Y-94650000D01*
X127704238Y-94593144D01*
X127513019Y-94465375D01*
X127300547Y-94377366D01*
X127074989Y-94332500D01*
X126845011Y-94332500D01*
X126619453Y-94377366D01*
X126406981Y-94465375D01*
X126215762Y-94593144D01*
X126053144Y-94755762D01*
X125925375Y-94946981D01*
X125837366Y-95159453D01*
X125792500Y-95385011D01*
X125342500Y-95385011D01*
X125342500Y-91016747D01*
X125362042Y-90817443D01*
X126146468Y-90817443D01*
X126146468Y-91182557D01*
X126217699Y-91540655D01*
X126357422Y-91877976D01*
X126560268Y-92181557D01*
X126818443Y-92439732D01*
X127122024Y-92642578D01*
X127459345Y-92782301D01*
X127817443Y-92853532D01*
X128182557Y-92853532D01*
X128540655Y-92782301D01*
X128877976Y-92642578D01*
X129181557Y-92439732D01*
X129439732Y-92181557D01*
X129642578Y-91877976D01*
X129782301Y-91540655D01*
X129853532Y-91182557D01*
X129853532Y-90817443D01*
X129782301Y-90459345D01*
X129642578Y-90122024D01*
X129439732Y-89818443D01*
X129181557Y-89560268D01*
X128877976Y-89357422D01*
X128540655Y-89217699D01*
X128182557Y-89146468D01*
X127817443Y-89146468D01*
X127459345Y-89217699D01*
X127122024Y-89357422D01*
X126818443Y-89560268D01*
X126560268Y-89818443D01*
X126357422Y-90122024D01*
X126217699Y-90459345D01*
X126146468Y-90817443D01*
X125362042Y-90817443D01*
X125394723Y-90484143D01*
X125544537Y-89987933D01*
X125787880Y-89530269D01*
X126115482Y-89128592D01*
X126514864Y-88798194D01*
X126970814Y-88551663D01*
X127465967Y-88398388D01*
X127997602Y-88342511D01*
X128000620Y-88342500D01*
X166983253Y-88342500D01*
X167515857Y-88394723D01*
%TA.AperFunction,Conductor*%
D15*
G36*
X167515857Y-88394723D02*
G01*
X168012067Y-88544537D01*
X168469731Y-88787880D01*
X168871408Y-89115482D01*
X169201806Y-89514864D01*
X169448337Y-89970814D01*
X169601612Y-90465967D01*
X169657489Y-90997602D01*
X169657501Y-91000907D01*
X169657500Y-109983253D01*
X169605277Y-110515857D01*
X169455463Y-111012067D01*
X169212118Y-111469733D01*
X168884521Y-111871406D01*
X168485136Y-112201806D01*
X168029186Y-112448337D01*
X167534035Y-112601612D01*
X167002398Y-112657489D01*
X166999380Y-112657500D01*
X128016747Y-112657500D01*
X127484143Y-112605277D01*
X126987933Y-112455463D01*
X126530267Y-112212118D01*
X126128594Y-111884521D01*
X125798194Y-111485136D01*
X125551663Y-111029186D01*
X125398388Y-110534035D01*
X125342511Y-110002398D01*
X125342500Y-109999380D01*
X125342500Y-109817443D01*
X126146468Y-109817443D01*
X126146468Y-110182557D01*
X126217699Y-110540655D01*
X126357422Y-110877976D01*
X126560268Y-111181557D01*
X126818443Y-111439732D01*
X127122024Y-111642578D01*
X127459345Y-111782301D01*
X127817443Y-111853532D01*
X128182557Y-111853532D01*
X128540655Y-111782301D01*
X128877976Y-111642578D01*
X129181557Y-111439732D01*
X129439732Y-111181557D01*
X129642578Y-110877976D01*
X129782301Y-110540655D01*
X129853532Y-110182557D01*
X129853532Y-109817443D01*
X129782301Y-109459345D01*
X129642578Y-109122024D01*
X129439732Y-108818443D01*
X129181557Y-108560268D01*
X128877976Y-108357422D01*
X128540655Y-108217699D01*
X128182557Y-108146468D01*
X127817443Y-108146468D01*
X127459345Y-108217699D01*
X127122024Y-108357422D01*
X126818443Y-108560268D01*
X126560268Y-108818443D01*
X126357422Y-109122024D01*
X126217699Y-109459345D01*
X126146468Y-109817443D01*
X125342500Y-109817443D01*
X125342500Y-105835302D01*
X125934374Y-105835302D01*
X125945359Y-105890531D01*
X126009829Y-106084048D01*
X126110814Y-106261269D01*
X126244433Y-106415384D01*
X126405551Y-106540470D01*
X126587976Y-106631720D01*
X126784698Y-106685627D01*
X126947300Y-106652798D01*
X126947300Y-105672700D01*
X125967206Y-105672700D01*
X125934374Y-105835302D01*
X125342500Y-105835302D01*
X125342500Y-105484698D01*
X125934374Y-105484698D01*
X125967206Y-105647300D01*
X126947300Y-105647300D01*
X126947300Y-104667202D01*
X126784698Y-104634373D01*
X126587976Y-104688280D01*
X126405551Y-104779530D01*
X126244433Y-104904616D01*
X126110814Y-105058731D01*
X126009829Y-105235952D01*
X125945359Y-105429469D01*
X125934374Y-105484698D01*
X125342500Y-105484698D01*
X125342500Y-97925011D01*
X125792500Y-97925011D01*
X125792500Y-98154989D01*
X125837366Y-98380547D01*
X125925375Y-98593019D01*
X126053144Y-98784238D01*
X126215762Y-98946856D01*
X126406981Y-99074625D01*
X126619453Y-99162634D01*
X126845011Y-99207500D01*
X127074989Y-99207500D01*
X127300547Y-99162634D01*
X127411066Y-99116855D01*
X127692502Y-99398291D01*
X127692502Y-99665302D01*
X127513019Y-99545375D01*
X127300547Y-99457366D01*
X127074989Y-99412500D01*
X126845011Y-99412500D01*
X126619453Y-99457366D01*
X126406981Y-99545375D01*
X126215762Y-99673144D01*
X126053144Y-99835762D01*
X125925375Y-100026981D01*
X125837366Y-100239453D01*
X125792500Y-100465011D01*
X125792500Y-100694989D01*
X125837366Y-100920547D01*
X125925375Y-101133019D01*
X126053144Y-101324238D01*
X126215762Y-101486856D01*
X126406981Y-101614625D01*
X126619453Y-101702634D01*
X126845011Y-101747500D01*
X127074989Y-101747500D01*
X127300547Y-101702634D01*
X127411066Y-101656855D01*
X127692502Y-101938291D01*
X127692502Y-102205302D01*
X127513019Y-102085375D01*
X127300547Y-101997366D01*
X127074989Y-101952500D01*
X126845011Y-101952500D01*
X126619453Y-101997366D01*
X126406981Y-102085375D01*
X126215762Y-102213144D01*
X126053144Y-102375762D01*
X125925375Y-102566981D01*
X125837366Y-102779453D01*
X125792500Y-103005011D01*
X125792500Y-103234989D01*
X125837366Y-103460547D01*
X125925375Y-103673019D01*
X126053144Y-103864238D01*
X126215762Y-104026856D01*
X126406981Y-104154625D01*
X126619453Y-104242634D01*
X126845011Y-104287500D01*
X127074989Y-104287500D01*
X127300547Y-104242634D01*
X127411066Y-104196855D01*
X127692502Y-104478291D01*
X127692502Y-104924148D01*
X127675567Y-104904616D01*
X127514449Y-104779530D01*
X127332024Y-104688280D01*
X127135302Y-104634373D01*
X126972700Y-104667202D01*
X126972700Y-105647300D01*
X126992700Y-105647300D01*
X126992700Y-105672700D01*
X126972700Y-105672700D01*
X126972700Y-106652798D01*
X127135302Y-106685627D01*
X127332024Y-106631720D01*
X127514449Y-106540470D01*
X127675567Y-106415384D01*
X127742104Y-106338641D01*
X127765296Y-106382030D01*
X127783522Y-106404238D01*
X127820592Y-106449410D01*
X127837482Y-106463271D01*
X131410463Y-110036253D01*
X131290713Y-110060073D01*
X131160136Y-110114159D01*
X131042620Y-110192681D01*
X130942681Y-110292620D01*
X130864159Y-110410136D01*
X130810073Y-110540713D01*
X130782500Y-110679332D01*
X130782500Y-110820668D01*
X130810073Y-110959287D01*
X130864159Y-111089864D01*
X130942681Y-111207380D01*
X131042620Y-111307319D01*
X131160136Y-111385841D01*
X131290713Y-111439927D01*
X131429332Y-111467500D01*
X131570668Y-111467500D01*
X131588219Y-111464009D01*
X132046755Y-111922545D01*
X132060611Y-111939429D01*
X132077495Y-111953285D01*
X132127990Y-111994725D01*
X132139352Y-112000798D01*
X132204863Y-112035815D01*
X132288275Y-112061117D01*
X132353283Y-112067520D01*
X132353285Y-112067520D01*
X132375019Y-112069661D01*
X132396753Y-112067520D01*
X152176248Y-112067520D01*
X152197982Y-112069661D01*
X152219716Y-112067520D01*
X152219719Y-112067520D01*
X152284727Y-112061117D01*
X152368139Y-112035815D01*
X152445011Y-111994725D01*
X152512391Y-111939429D01*
X152526252Y-111922539D01*
X154631348Y-109817443D01*
X165146468Y-109817443D01*
X165146468Y-110182557D01*
X165217699Y-110540655D01*
X165357422Y-110877976D01*
X165560268Y-111181557D01*
X165818443Y-111439732D01*
X166122024Y-111642578D01*
X166459345Y-111782301D01*
X166817443Y-111853532D01*
X167182557Y-111853532D01*
X167540655Y-111782301D01*
X167877976Y-111642578D01*
X168181557Y-111439732D01*
X168439732Y-111181557D01*
X168642578Y-110877976D01*
X168782301Y-110540655D01*
X168853532Y-110182557D01*
X168853532Y-109817443D01*
X168782301Y-109459345D01*
X168642578Y-109122024D01*
X168439732Y-108818443D01*
X168181557Y-108560268D01*
X167877976Y-108357422D01*
X167540655Y-108217699D01*
X167182557Y-108146468D01*
X166817443Y-108146468D01*
X166459345Y-108217699D01*
X166122024Y-108357422D01*
X165818443Y-108560268D01*
X165560268Y-108818443D01*
X165357422Y-109122024D01*
X165217699Y-109459345D01*
X165146468Y-109817443D01*
X154631348Y-109817443D01*
X156887526Y-107561266D01*
X156904410Y-107547410D01*
X156926214Y-107520841D01*
X156959706Y-107480031D01*
X157000796Y-107403158D01*
X157023096Y-107329641D01*
X157026098Y-107319746D01*
X157032501Y-107254738D01*
X157032501Y-107254735D01*
X157034642Y-107233001D01*
X157032501Y-107211267D01*
X157032501Y-104111735D01*
X157034642Y-104090001D01*
X157028422Y-104026856D01*
X157026098Y-104003256D01*
X157000796Y-103919844D01*
X156981747Y-103884206D01*
X156959706Y-103842971D01*
X156918266Y-103792476D01*
X156904410Y-103775592D01*
X156887527Y-103761737D01*
X155625789Y-102500000D01*
X156547526Y-101578264D01*
X156564409Y-101564409D01*
X156610725Y-101507972D01*
X156619705Y-101497030D01*
X156660795Y-101420157D01*
X156660795Y-101420156D01*
X156686097Y-101336745D01*
X156692500Y-101271737D01*
X156692500Y-101271734D01*
X156694641Y-101250000D01*
X156692500Y-101228266D01*
X156692500Y-96067262D01*
X156707380Y-96057319D01*
X156807319Y-95957380D01*
X156885841Y-95839864D01*
X156939927Y-95709287D01*
X156967500Y-95570668D01*
X156967500Y-95429332D01*
X156939927Y-95290713D01*
X156885841Y-95160136D01*
X156807319Y-95042620D01*
X156707380Y-94942681D01*
X156589864Y-94864159D01*
X156459287Y-94810073D01*
X156320668Y-94782500D01*
X156179332Y-94782500D01*
X156040713Y-94810073D01*
X155910136Y-94864159D01*
X155792620Y-94942681D01*
X155692681Y-95042620D01*
X155614159Y-95160136D01*
X155560073Y-95290713D01*
X155532500Y-95429332D01*
X155532500Y-95570668D01*
X155560073Y-95709287D01*
X155614159Y-95839864D01*
X155692681Y-95957380D01*
X155792620Y-96057319D01*
X155807501Y-96067262D01*
X155807500Y-101066710D01*
X154816711Y-102057500D01*
X152317262Y-102057500D01*
X152307319Y-102042620D01*
X152207380Y-101942681D01*
X152089864Y-101864159D01*
X151959287Y-101810073D01*
X151820668Y-101782500D01*
X151679332Y-101782500D01*
X151540713Y-101810073D01*
X151410136Y-101864159D01*
X151292620Y-101942681D01*
X151192681Y-102042620D01*
X151114159Y-102160136D01*
X151060073Y-102290713D01*
X151032500Y-102429332D01*
X151032500Y-102570668D01*
X151060073Y-102709287D01*
X151114159Y-102839864D01*
X151192681Y-102957380D01*
X151292620Y-103057319D01*
X151410136Y-103135841D01*
X151540713Y-103189927D01*
X151679332Y-103217500D01*
X151820668Y-103217500D01*
X151959287Y-103189927D01*
X152089864Y-103135841D01*
X152207380Y-103057319D01*
X152307319Y-102957380D01*
X152317262Y-102942500D01*
X154816711Y-102942500D01*
X156147501Y-104273291D01*
X156147502Y-106225399D01*
X156074287Y-106195073D01*
X155935668Y-106167500D01*
X155794332Y-106167500D01*
X155655713Y-106195073D01*
X155525136Y-106249159D01*
X155407620Y-106327681D01*
X155307681Y-106427620D01*
X155229159Y-106545136D01*
X155175073Y-106675713D01*
X155147500Y-106814332D01*
X155147500Y-106955668D01*
X155150991Y-106973220D01*
X153042501Y-109081710D01*
X153042501Y-108548732D01*
X153044642Y-108526998D01*
X153038457Y-108464206D01*
X153036098Y-108440254D01*
X153010796Y-108356842D01*
X152969706Y-108279970D01*
X152914410Y-108212590D01*
X152897522Y-108198731D01*
X151286272Y-106587481D01*
X151272411Y-106570591D01*
X151205031Y-106515295D01*
X151128159Y-106474205D01*
X151044747Y-106448903D01*
X150979739Y-106442500D01*
X150979736Y-106442500D01*
X150958002Y-106440359D01*
X150936268Y-106442500D01*
X147453290Y-106442500D01*
X148022527Y-105873263D01*
X148039410Y-105859408D01*
X148094706Y-105792028D01*
X148135796Y-105715156D01*
X148161098Y-105631744D01*
X148167501Y-105566736D01*
X148167501Y-105566735D01*
X148169642Y-105544999D01*
X148167501Y-105523262D01*
X148167501Y-103708288D01*
X152797521Y-99078268D01*
X152814409Y-99064409D01*
X152869705Y-98997029D01*
X152910795Y-98920157D01*
X152936097Y-98836745D01*
X152942500Y-98771737D01*
X152942500Y-98771735D01*
X152944641Y-98750001D01*
X152942500Y-98728267D01*
X152942500Y-96433289D01*
X155911780Y-93464009D01*
X155929332Y-93467500D01*
X156070668Y-93467500D01*
X156209287Y-93439927D01*
X156339864Y-93385841D01*
X156457380Y-93307319D01*
X156557319Y-93207380D01*
X156635841Y-93089864D01*
X156689927Y-92959287D01*
X156717500Y-92820668D01*
X156717500Y-92679332D01*
X156689927Y-92540713D01*
X156635841Y-92410136D01*
X156557319Y-92292620D01*
X156457380Y-92192681D01*
X156339864Y-92114159D01*
X156209287Y-92060073D01*
X156070668Y-92032500D01*
X155929332Y-92032500D01*
X155790713Y-92060073D01*
X155660136Y-92114159D01*
X155542620Y-92192681D01*
X155442681Y-92292620D01*
X155364159Y-92410136D01*
X155310073Y-92540713D01*
X155282500Y-92679332D01*
X155282500Y-92820668D01*
X155285991Y-92838220D01*
X152202476Y-95921735D01*
X152185592Y-95935591D01*
X152171736Y-95952475D01*
X152171735Y-95952476D01*
X152130295Y-96002971D01*
X152089205Y-96079844D01*
X152063904Y-96163255D01*
X152055359Y-96250000D01*
X152057501Y-96271744D01*
X152057500Y-98566711D01*
X147427477Y-103196734D01*
X147410593Y-103210590D01*
X147396737Y-103227474D01*
X147396736Y-103227475D01*
X147355296Y-103277970D01*
X147314206Y-103354843D01*
X147288905Y-103438254D01*
X147280360Y-103524999D01*
X147282502Y-103546743D01*
X147282501Y-105361709D01*
X146473219Y-106170991D01*
X146455668Y-106167500D01*
X146314332Y-106167500D01*
X146175713Y-106195073D01*
X146045136Y-106249159D01*
X145927620Y-106327681D01*
X145827681Y-106427620D01*
X145749159Y-106545136D01*
X145695073Y-106675713D01*
X145667500Y-106814332D01*
X145667500Y-106955668D01*
X145695073Y-107094287D01*
X145749159Y-107224864D01*
X145827681Y-107342380D01*
X145927620Y-107442319D01*
X146045136Y-107520841D01*
X146175713Y-107574927D01*
X146314332Y-107602500D01*
X146455668Y-107602500D01*
X146594287Y-107574927D01*
X146724864Y-107520841D01*
X146842380Y-107442319D01*
X146942319Y-107342380D01*
X146952262Y-107327500D01*
X150774713Y-107327500D01*
X151642076Y-108194863D01*
X151535136Y-108239159D01*
X151417620Y-108317681D01*
X151317681Y-108417620D01*
X151307738Y-108432500D01*
X143646733Y-108432500D01*
X143624999Y-108430359D01*
X143603265Y-108432500D01*
X143603263Y-108432500D01*
X143538255Y-108438903D01*
X143454843Y-108464205D01*
X143377971Y-108505295D01*
X143310591Y-108560591D01*
X143296730Y-108577481D01*
X142588220Y-109285991D01*
X142570668Y-109282500D01*
X142429332Y-109282500D01*
X142411780Y-109285991D01*
X141442500Y-108316711D01*
X141442500Y-104781735D01*
X141444641Y-104760001D01*
X141441794Y-104731097D01*
X141436097Y-104673257D01*
X141410795Y-104589845D01*
X141376720Y-104526097D01*
X141369705Y-104512972D01*
X141328265Y-104462477D01*
X141314409Y-104445593D01*
X141297525Y-104431737D01*
X139295120Y-102429332D01*
X140282500Y-102429332D01*
X140282500Y-102570668D01*
X140310073Y-102709287D01*
X140364159Y-102839864D01*
X140442681Y-102957380D01*
X140542620Y-103057319D01*
X140660136Y-103135841D01*
X140790713Y-103189927D01*
X140929332Y-103217500D01*
X141070668Y-103217500D01*
X141209287Y-103189927D01*
X141339864Y-103135841D01*
X141457380Y-103057319D01*
X141557319Y-102957380D01*
X141635841Y-102839864D01*
X141689927Y-102709287D01*
X141717500Y-102570668D01*
X141717500Y-102429332D01*
X141714009Y-102411780D01*
X142933290Y-101192500D01*
X146432738Y-101192500D01*
X146442681Y-101207380D01*
X146542620Y-101307319D01*
X146660136Y-101385841D01*
X146790713Y-101439927D01*
X146929332Y-101467500D01*
X147070668Y-101467500D01*
X147209287Y-101439927D01*
X147339864Y-101385841D01*
X147457380Y-101307319D01*
X147557319Y-101207380D01*
X147635841Y-101089864D01*
X147689927Y-100959287D01*
X147717500Y-100820668D01*
X147717500Y-100679332D01*
X147689927Y-100540713D01*
X147635841Y-100410136D01*
X147557319Y-100292620D01*
X147457380Y-100192681D01*
X147339864Y-100114159D01*
X147209287Y-100060073D01*
X147070668Y-100032500D01*
X146929332Y-100032500D01*
X146790713Y-100060073D01*
X146660136Y-100114159D01*
X146542620Y-100192681D01*
X146442681Y-100292620D01*
X146432738Y-100307500D01*
X142771734Y-100307500D01*
X142750000Y-100305359D01*
X142728266Y-100307500D01*
X142728263Y-100307500D01*
X142663255Y-100313903D01*
X142579843Y-100339205D01*
X142502971Y-100380295D01*
X142435591Y-100435591D01*
X142421735Y-100452475D01*
X141088220Y-101785991D01*
X141070668Y-101782500D01*
X140929332Y-101782500D01*
X140790713Y-101810073D01*
X140660136Y-101864159D01*
X140542620Y-101942681D01*
X140442681Y-102042620D01*
X140364159Y-102160136D01*
X140310073Y-102290713D01*
X140282500Y-102429332D01*
X139295120Y-102429332D01*
X138620788Y-101755001D01*
X142411781Y-97964009D01*
X142429332Y-97967500D01*
X142570668Y-97967500D01*
X142588219Y-97964009D01*
X143171735Y-98547525D01*
X143185591Y-98564409D01*
X143202475Y-98578265D01*
X143252971Y-98619705D01*
X143329843Y-98660795D01*
X143413255Y-98686097D01*
X143500000Y-98694641D01*
X143521737Y-98692500D01*
X150682738Y-98692500D01*
X150692681Y-98707380D01*
X150792620Y-98807319D01*
X150910136Y-98885841D01*
X151040713Y-98939927D01*
X151179332Y-98967500D01*
X151320668Y-98967500D01*
X151459287Y-98939927D01*
X151589864Y-98885841D01*
X151707380Y-98807319D01*
X151807319Y-98707380D01*
X151885841Y-98589864D01*
X151939927Y-98459287D01*
X151967500Y-98320668D01*
X151967500Y-98179332D01*
X151939927Y-98040713D01*
X151885841Y-97910136D01*
X151807319Y-97792620D01*
X151707380Y-97692681D01*
X151589864Y-97614159D01*
X151459287Y-97560073D01*
X151320668Y-97532500D01*
X151179332Y-97532500D01*
X151040713Y-97560073D01*
X150910136Y-97614159D01*
X150792620Y-97692681D01*
X150692681Y-97792620D01*
X150682738Y-97807500D01*
X143683290Y-97807500D01*
X143214009Y-97338219D01*
X143217500Y-97320668D01*
X143217500Y-97179332D01*
X143189927Y-97040713D01*
X143135841Y-96910136D01*
X143057319Y-96792620D01*
X142957380Y-96692681D01*
X142839864Y-96614159D01*
X142709287Y-96560073D01*
X142570668Y-96532500D01*
X142429332Y-96532500D01*
X142290713Y-96560073D01*
X142160136Y-96614159D01*
X142042620Y-96692681D01*
X141942681Y-96792620D01*
X141864159Y-96910136D01*
X141810073Y-97040713D01*
X141782500Y-97179332D01*
X141782500Y-97320668D01*
X141785991Y-97338219D01*
X137811710Y-101312501D01*
X130414698Y-101312501D01*
X130534625Y-101133019D01*
X130622634Y-100920547D01*
X130667500Y-100694989D01*
X130667500Y-100465011D01*
X130622634Y-100239453D01*
X130576855Y-100128934D01*
X135128290Y-95577500D01*
X142047738Y-95577500D01*
X142057681Y-95592380D01*
X142157620Y-95692319D01*
X142275136Y-95770841D01*
X142405713Y-95824927D01*
X142544332Y-95852500D01*
X142685668Y-95852500D01*
X142824287Y-95824927D01*
X142954864Y-95770841D01*
X143072380Y-95692319D01*
X143172319Y-95592380D01*
X143182262Y-95577500D01*
X149843266Y-95577500D01*
X149865000Y-95579641D01*
X149886734Y-95577500D01*
X149886737Y-95577500D01*
X149951745Y-95571097D01*
X150035157Y-95545795D01*
X150112029Y-95504705D01*
X150179409Y-95449409D01*
X150193269Y-95432520D01*
X151047526Y-94578264D01*
X151064409Y-94564409D01*
X151078551Y-94547177D01*
X151119705Y-94497030D01*
X151160795Y-94420157D01*
X151173775Y-94377366D01*
X151186097Y-94336745D01*
X151192500Y-94271737D01*
X151192500Y-94271735D01*
X151194641Y-94250001D01*
X151192500Y-94228266D01*
X151192500Y-91317262D01*
X151207380Y-91307319D01*
X151307319Y-91207380D01*
X151385841Y-91089864D01*
X151439927Y-90959287D01*
X151467500Y-90820668D01*
X151467500Y-90817443D01*
X165146468Y-90817443D01*
X165146468Y-91182557D01*
X165217699Y-91540655D01*
X165357422Y-91877976D01*
X165560268Y-92181557D01*
X165818443Y-92439732D01*
X166122024Y-92642578D01*
X166459345Y-92782301D01*
X166817443Y-92853532D01*
X167182557Y-92853532D01*
X167540655Y-92782301D01*
X167877976Y-92642578D01*
X168181557Y-92439732D01*
X168439732Y-92181557D01*
X168642578Y-91877976D01*
X168782301Y-91540655D01*
X168853532Y-91182557D01*
X168853532Y-90817443D01*
X168782301Y-90459345D01*
X168642578Y-90122024D01*
X168439732Y-89818443D01*
X168181557Y-89560268D01*
X167877976Y-89357422D01*
X167540655Y-89217699D01*
X167182557Y-89146468D01*
X166817443Y-89146468D01*
X166459345Y-89217699D01*
X166122024Y-89357422D01*
X165818443Y-89560268D01*
X165560268Y-89818443D01*
X165357422Y-90122024D01*
X165217699Y-90459345D01*
X165146468Y-90817443D01*
X151467500Y-90817443D01*
X151467500Y-90679332D01*
X151439927Y-90540713D01*
X151385841Y-90410136D01*
X151307319Y-90292620D01*
X151207380Y-90192681D01*
X151089864Y-90114159D01*
X150959287Y-90060073D01*
X150820668Y-90032500D01*
X150679332Y-90032500D01*
X150540713Y-90060073D01*
X150410136Y-90114159D01*
X150292620Y-90192681D01*
X150192681Y-90292620D01*
X150114159Y-90410136D01*
X150060073Y-90540713D01*
X150032500Y-90679332D01*
X150032500Y-90820668D01*
X150060073Y-90959287D01*
X150114159Y-91089864D01*
X150192681Y-91207380D01*
X150292620Y-91307319D01*
X150307501Y-91317262D01*
X150307500Y-94066710D01*
X149681711Y-94692500D01*
X143182262Y-94692500D01*
X143172319Y-94677620D01*
X143072380Y-94577681D01*
X142954864Y-94499159D01*
X142824287Y-94445073D01*
X142685668Y-94417500D01*
X142544332Y-94417500D01*
X142405713Y-94445073D01*
X142275136Y-94499159D01*
X142157620Y-94577681D01*
X142057681Y-94677620D01*
X142047738Y-94692500D01*
X134966734Y-94692500D01*
X134945000Y-94690359D01*
X134923266Y-94692500D01*
X134923263Y-94692500D01*
X134858255Y-94698903D01*
X134774843Y-94724205D01*
X134697970Y-94765295D01*
X134647823Y-94806449D01*
X134630591Y-94820591D01*
X134616735Y-94837475D01*
X129951066Y-99503145D01*
X129840547Y-99457366D01*
X129614989Y-99412500D01*
X129385011Y-99412500D01*
X129159453Y-99457366D01*
X128946981Y-99545375D01*
X128755762Y-99673144D01*
X128593144Y-99835762D01*
X128577501Y-99859173D01*
X128577501Y-99236734D01*
X128579642Y-99215000D01*
X128574484Y-99162634D01*
X128571098Y-99128256D01*
X128545796Y-99044844D01*
X128504706Y-98967972D01*
X128449410Y-98900592D01*
X128432520Y-98886731D01*
X128036855Y-98491066D01*
X128082634Y-98380547D01*
X128115503Y-98215302D01*
X128474374Y-98215302D01*
X128485359Y-98270531D01*
X128549829Y-98464048D01*
X128650814Y-98641269D01*
X128784433Y-98795384D01*
X128945551Y-98920470D01*
X129127976Y-99011720D01*
X129324698Y-99065627D01*
X129487300Y-99032798D01*
X129487300Y-98052700D01*
X129512700Y-98052700D01*
X129512700Y-99032798D01*
X129675302Y-99065627D01*
X129872024Y-99011720D01*
X130054449Y-98920470D01*
X130215567Y-98795384D01*
X130349186Y-98641269D01*
X130450171Y-98464048D01*
X130514641Y-98270531D01*
X130525626Y-98215302D01*
X130492794Y-98052700D01*
X129512700Y-98052700D01*
X129487300Y-98052700D01*
X128507206Y-98052700D01*
X128474374Y-98215302D01*
X128115503Y-98215302D01*
X128127500Y-98154989D01*
X128127500Y-97925011D01*
X128115504Y-97864698D01*
X128474374Y-97864698D01*
X128507206Y-98027300D01*
X129487300Y-98027300D01*
X129487300Y-97047202D01*
X129512700Y-97047202D01*
X129512700Y-98027300D01*
X130492794Y-98027300D01*
X130525626Y-97864698D01*
X130514641Y-97809469D01*
X130450171Y-97615952D01*
X130349186Y-97438731D01*
X130215567Y-97284616D01*
X130054449Y-97159530D01*
X129872024Y-97068280D01*
X129675302Y-97014373D01*
X129512700Y-97047202D01*
X129487300Y-97047202D01*
X129324698Y-97014373D01*
X129127976Y-97068280D01*
X128945551Y-97159530D01*
X128784433Y-97284616D01*
X128650814Y-97438731D01*
X128549829Y-97615952D01*
X128485359Y-97809469D01*
X128474374Y-97864698D01*
X128115504Y-97864698D01*
X128082634Y-97699453D01*
X127994625Y-97486981D01*
X127866856Y-97295762D01*
X127704238Y-97133144D01*
X127513019Y-97005375D01*
X127300547Y-96917366D01*
X127074989Y-96872500D01*
X126845011Y-96872500D01*
X126619453Y-96917366D01*
X126406981Y-97005375D01*
X126215762Y-97133144D01*
X126053144Y-97295762D01*
X125925375Y-97486981D01*
X125837366Y-97699453D01*
X125792500Y-97925011D01*
X125342500Y-97925011D01*
X125342500Y-95385011D01*
X125792500Y-95385011D01*
X125792500Y-95614989D01*
X125837366Y-95840547D01*
X125925375Y-96053019D01*
X126053144Y-96244238D01*
X126215762Y-96406856D01*
X126406981Y-96534625D01*
X126619453Y-96622634D01*
X126845011Y-96667500D01*
X127074989Y-96667500D01*
X127300547Y-96622634D01*
X127513019Y-96534625D01*
X127704238Y-96406856D01*
X127866856Y-96244238D01*
X127994625Y-96053019D01*
X128082634Y-95840547D01*
X128127500Y-95614989D01*
X128127500Y-95385011D01*
X128082634Y-95159453D01*
X127994625Y-94946981D01*
X127866856Y-94755762D01*
X127761094Y-94650000D01*
X128330964Y-94650000D01*
X128330964Y-96350000D01*
X128337094Y-96412241D01*
X128355249Y-96472090D01*
X128384731Y-96527247D01*
X128424407Y-96575593D01*
X128472753Y-96615269D01*
X128527910Y-96644751D01*
X128587759Y-96662906D01*
X128650000Y-96669036D01*
X130350000Y-96669036D01*
X130412241Y-96662906D01*
X130472090Y-96644751D01*
X130527247Y-96615269D01*
X130575593Y-96575593D01*
X130615269Y-96527247D01*
X130644751Y-96472090D01*
X130662906Y-96412241D01*
X130669036Y-96350000D01*
X130669036Y-94650000D01*
X130662906Y-94587759D01*
X130644751Y-94527910D01*
X130615269Y-94472753D01*
X130575593Y-94424407D01*
X130527247Y-94384731D01*
X130472090Y-94355249D01*
X130412241Y-94337094D01*
X130350000Y-94330964D01*
X128650000Y-94330964D01*
X128587759Y-94337094D01*
X128527910Y-94355249D01*
X128472753Y-94384731D01*
X128424407Y-94424407D01*
X128384731Y-94472753D01*
X128355249Y-94527910D01*
X128337094Y-94587759D01*
X128330964Y-94650000D01*
X127761094Y-94650000D01*
X127704238Y-94593144D01*
X127513019Y-94465375D01*
X127300547Y-94377366D01*
X127074989Y-94332500D01*
X126845011Y-94332500D01*
X126619453Y-94377366D01*
X126406981Y-94465375D01*
X126215762Y-94593144D01*
X126053144Y-94755762D01*
X125925375Y-94946981D01*
X125837366Y-95159453D01*
X125792500Y-95385011D01*
X125342500Y-95385011D01*
X125342500Y-91016747D01*
X125362042Y-90817443D01*
X126146468Y-90817443D01*
X126146468Y-91182557D01*
X126217699Y-91540655D01*
X126357422Y-91877976D01*
X126560268Y-92181557D01*
X126818443Y-92439732D01*
X127122024Y-92642578D01*
X127459345Y-92782301D01*
X127817443Y-92853532D01*
X128182557Y-92853532D01*
X128540655Y-92782301D01*
X128877976Y-92642578D01*
X129181557Y-92439732D01*
X129439732Y-92181557D01*
X129642578Y-91877976D01*
X129782301Y-91540655D01*
X129853532Y-91182557D01*
X129853532Y-90817443D01*
X129782301Y-90459345D01*
X129642578Y-90122024D01*
X129439732Y-89818443D01*
X129181557Y-89560268D01*
X128877976Y-89357422D01*
X128540655Y-89217699D01*
X128182557Y-89146468D01*
X127817443Y-89146468D01*
X127459345Y-89217699D01*
X127122024Y-89357422D01*
X126818443Y-89560268D01*
X126560268Y-89818443D01*
X126357422Y-90122024D01*
X126217699Y-90459345D01*
X126146468Y-90817443D01*
X125362042Y-90817443D01*
X125394723Y-90484143D01*
X125544537Y-89987933D01*
X125787880Y-89530269D01*
X126115482Y-89128592D01*
X126514864Y-88798194D01*
X126970814Y-88551663D01*
X127465967Y-88398388D01*
X127997602Y-88342511D01*
X128000620Y-88342500D01*
X166983253Y-88342500D01*
X167515857Y-88394723D01*
G37*
%TD.AperFunction*%
D14*
X151317681Y-109332380D02*
X151417620Y-109432319D01*
X151535136Y-109510841D01*
X151642076Y-109555136D01*
X150914712Y-110282501D01*
X143159601Y-110282501D01*
X143189927Y-110209287D01*
X143217500Y-110070668D01*
X143217500Y-109929332D01*
X143214009Y-109911780D01*
X143808289Y-109317500D01*
X151307738Y-109317500D01*
X151317681Y-109332380D01*
%TA.AperFunction,Conductor*%
D15*
G36*
X151317681Y-109332380D02*
G01*
X151417620Y-109432319D01*
X151535136Y-109510841D01*
X151642076Y-109555136D01*
X150914712Y-110282501D01*
X143159601Y-110282501D01*
X143189927Y-110209287D01*
X143217500Y-110070668D01*
X143217500Y-109929332D01*
X143214009Y-109911780D01*
X143808289Y-109317500D01*
X151307738Y-109317500D01*
X151317681Y-109332380D01*
G37*
%TD.AperFunction*%
%TD*%
M02*
