M48
; DRILL file {KiCad (5.1.10)-1} date 07/30/21 22:48:09
; FORMAT={-:-/ absolute / inch / decimal}
; #@! TF.CreationDate,2021-07-30T22:48:09+05:30
; #@! TF.GenerationSoftware,Kicad,Pcbnew,(5.1.10)-1
; #@! TF.FileFunction,Plated,1,2,PTH
FMAT,2
INCH
T1C0.0157
T2C0.0394
%
G90
G05
T1
X5.1772Y-4.3602
X5.3543Y-3.8287
X5.4528Y-3.8287
X5.5512Y-4.0354
X5.5906Y-3.6122
X5.6102Y-3.8287
X5.6102Y-4.0748
X5.6102Y-4.3307
X5.6148Y-3.7455
X5.7632Y-4.2081
X5.7874Y-3.9665
X5.935Y-3.5728
X5.9449Y-4.3307
X5.9547Y-3.8681
X5.9744Y-4.0354
X5.9793Y-4.2864
X6.1364Y-4.2081
X6.1417Y-3.6516
X6.1516Y-3.7598
X6.3484Y-3.8189
X6.3484Y-3.8681
X6.3484Y-3.9173
X6.3583Y-4.311
T2
X4.9984Y-3.7598
X4.9984Y-3.8598
X4.9984Y-3.9598
X4.9984Y-4.0598
X4.9984Y-4.1598
X5.0984Y-3.7598
X5.0984Y-3.8598
X5.0984Y-3.9598
X5.0984Y-4.0598
X5.0984Y-4.1598
T0
M30
