%TF.GenerationSoftware,KiCad,Pcbnew,(5.1.10)-1*%
%TF.CreationDate,2021-07-30T22:48:11+05:30*%
%TF.ProjectId,Logic Board,4c6f6769-6320-4426-9f61-72642e6b6963,rev?*%
%TF.SameCoordinates,Original*%
%TF.FileFunction,Paste,Top*%
%TF.FilePolarity,Positive*%
%FSLAX46Y46*%
G04 Gerber Fmt 4.6, Leading zero omitted, Abs format (unit mm)*
G04 Created by KiCad (PCBNEW (5.1.10)-1) date 2021-07-30 22:48:11*
%MOMM*%
%LPD*%
G01*
G04 APERTURE LIST*
%ADD10C,0.100000*%
%ADD11R,1.300000X0.900000*%
%ADD12R,0.450000X0.600000*%
G04 APERTURE END LIST*
D10*
%TO.C,U5*%
G36*
X139800000Y-107116500D02*
G01*
X136675000Y-107116500D01*
X136675000Y-106700000D01*
X135200000Y-106700000D01*
X135200000Y-105800000D01*
X136675000Y-105800000D01*
X136675000Y-105383500D01*
X139800000Y-105383500D01*
X139800000Y-107116500D01*
G37*
D11*
X135850000Y-107750000D03*
X135850000Y-104750000D03*
%TD*%
%TO.C,R14*%
G36*
G01*
X134025000Y-99575000D02*
X133475000Y-99575000D01*
G75*
G02*
X133275000Y-99375000I0J200000D01*
G01*
X133275000Y-98975000D01*
G75*
G02*
X133475000Y-98775000I200000J0D01*
G01*
X134025000Y-98775000D01*
G75*
G02*
X134225000Y-98975000I0J-200000D01*
G01*
X134225000Y-99375000D01*
G75*
G02*
X134025000Y-99575000I-200000J0D01*
G01*
G37*
G36*
G01*
X134025000Y-101225000D02*
X133475000Y-101225000D01*
G75*
G02*
X133275000Y-101025000I0J200000D01*
G01*
X133275000Y-100625000D01*
G75*
G02*
X133475000Y-100425000I200000J0D01*
G01*
X134025000Y-100425000D01*
G75*
G02*
X134225000Y-100625000I0J-200000D01*
G01*
X134225000Y-101025000D01*
G75*
G02*
X134025000Y-101225000I-200000J0D01*
G01*
G37*
%TD*%
%TO.C,R13*%
G36*
G01*
X137025000Y-99575000D02*
X136475000Y-99575000D01*
G75*
G02*
X136275000Y-99375000I0J200000D01*
G01*
X136275000Y-98975000D01*
G75*
G02*
X136475000Y-98775000I200000J0D01*
G01*
X137025000Y-98775000D01*
G75*
G02*
X137225000Y-98975000I0J-200000D01*
G01*
X137225000Y-99375000D01*
G75*
G02*
X137025000Y-99575000I-200000J0D01*
G01*
G37*
G36*
G01*
X137025000Y-101225000D02*
X136475000Y-101225000D01*
G75*
G02*
X136275000Y-101025000I0J200000D01*
G01*
X136275000Y-100625000D01*
G75*
G02*
X136475000Y-100425000I200000J0D01*
G01*
X137025000Y-100425000D01*
G75*
G02*
X137225000Y-100625000I0J-200000D01*
G01*
X137225000Y-101025000D01*
G75*
G02*
X137025000Y-101225000I-200000J0D01*
G01*
G37*
%TD*%
%TO.C,R12*%
G36*
G01*
X155175000Y-110275000D02*
X155175000Y-109725000D01*
G75*
G02*
X155375000Y-109525000I200000J0D01*
G01*
X155775000Y-109525000D01*
G75*
G02*
X155975000Y-109725000I0J-200000D01*
G01*
X155975000Y-110275000D01*
G75*
G02*
X155775000Y-110475000I-200000J0D01*
G01*
X155375000Y-110475000D01*
G75*
G02*
X155175000Y-110275000I0J200000D01*
G01*
G37*
G36*
G01*
X153525000Y-110275000D02*
X153525000Y-109725000D01*
G75*
G02*
X153725000Y-109525000I200000J0D01*
G01*
X154125000Y-109525000D01*
G75*
G02*
X154325000Y-109725000I0J-200000D01*
G01*
X154325000Y-110275000D01*
G75*
G02*
X154125000Y-110475000I-200000J0D01*
G01*
X153725000Y-110475000D01*
G75*
G02*
X153525000Y-110275000I0J200000D01*
G01*
G37*
%TD*%
%TO.C,R11*%
G36*
G01*
X157825000Y-102225000D02*
X157825000Y-102775000D01*
G75*
G02*
X157625000Y-102975000I-200000J0D01*
G01*
X157225000Y-102975000D01*
G75*
G02*
X157025000Y-102775000I0J200000D01*
G01*
X157025000Y-102225000D01*
G75*
G02*
X157225000Y-102025000I200000J0D01*
G01*
X157625000Y-102025000D01*
G75*
G02*
X157825000Y-102225000I0J-200000D01*
G01*
G37*
G36*
G01*
X159475000Y-102225000D02*
X159475000Y-102775000D01*
G75*
G02*
X159275000Y-102975000I-200000J0D01*
G01*
X158875000Y-102975000D01*
G75*
G02*
X158675000Y-102775000I0J200000D01*
G01*
X158675000Y-102225000D01*
G75*
G02*
X158875000Y-102025000I200000J0D01*
G01*
X159275000Y-102025000D01*
G75*
G02*
X159475000Y-102225000I0J-200000D01*
G01*
G37*
%TD*%
%TO.C,R9*%
G36*
G01*
X155175000Y-98775000D02*
X155175000Y-98225000D01*
G75*
G02*
X155375000Y-98025000I200000J0D01*
G01*
X155775000Y-98025000D01*
G75*
G02*
X155975000Y-98225000I0J-200000D01*
G01*
X155975000Y-98775000D01*
G75*
G02*
X155775000Y-98975000I-200000J0D01*
G01*
X155375000Y-98975000D01*
G75*
G02*
X155175000Y-98775000I0J200000D01*
G01*
G37*
G36*
G01*
X153525000Y-98775000D02*
X153525000Y-98225000D01*
G75*
G02*
X153725000Y-98025000I200000J0D01*
G01*
X154125000Y-98025000D01*
G75*
G02*
X154325000Y-98225000I0J-200000D01*
G01*
X154325000Y-98775000D01*
G75*
G02*
X154125000Y-98975000I-200000J0D01*
G01*
X153725000Y-98975000D01*
G75*
G02*
X153525000Y-98775000I0J200000D01*
G01*
G37*
%TD*%
%TO.C,R8*%
G36*
G01*
X157825000Y-90725000D02*
X157825000Y-91275000D01*
G75*
G02*
X157625000Y-91475000I-200000J0D01*
G01*
X157225000Y-91475000D01*
G75*
G02*
X157025000Y-91275000I0J200000D01*
G01*
X157025000Y-90725000D01*
G75*
G02*
X157225000Y-90525000I200000J0D01*
G01*
X157625000Y-90525000D01*
G75*
G02*
X157825000Y-90725000I0J-200000D01*
G01*
G37*
G36*
G01*
X159475000Y-90725000D02*
X159475000Y-91275000D01*
G75*
G02*
X159275000Y-91475000I-200000J0D01*
G01*
X158875000Y-91475000D01*
G75*
G02*
X158675000Y-91275000I0J200000D01*
G01*
X158675000Y-90725000D01*
G75*
G02*
X158875000Y-90525000I200000J0D01*
G01*
X159275000Y-90525000D01*
G75*
G02*
X159475000Y-90725000I0J-200000D01*
G01*
G37*
%TD*%
%TO.C,R6*%
G36*
G01*
X145675000Y-110275000D02*
X145675000Y-109725000D01*
G75*
G02*
X145875000Y-109525000I200000J0D01*
G01*
X146275000Y-109525000D01*
G75*
G02*
X146475000Y-109725000I0J-200000D01*
G01*
X146475000Y-110275000D01*
G75*
G02*
X146275000Y-110475000I-200000J0D01*
G01*
X145875000Y-110475000D01*
G75*
G02*
X145675000Y-110275000I0J200000D01*
G01*
G37*
G36*
G01*
X144025000Y-110275000D02*
X144025000Y-109725000D01*
G75*
G02*
X144225000Y-109525000I200000J0D01*
G01*
X144625000Y-109525000D01*
G75*
G02*
X144825000Y-109725000I0J-200000D01*
G01*
X144825000Y-110275000D01*
G75*
G02*
X144625000Y-110475000I-200000J0D01*
G01*
X144225000Y-110475000D01*
G75*
G02*
X144025000Y-110275000I0J200000D01*
G01*
G37*
%TD*%
%TO.C,R5*%
G36*
G01*
X148325000Y-102225000D02*
X148325000Y-102775000D01*
G75*
G02*
X148125000Y-102975000I-200000J0D01*
G01*
X147725000Y-102975000D01*
G75*
G02*
X147525000Y-102775000I0J200000D01*
G01*
X147525000Y-102225000D01*
G75*
G02*
X147725000Y-102025000I200000J0D01*
G01*
X148125000Y-102025000D01*
G75*
G02*
X148325000Y-102225000I0J-200000D01*
G01*
G37*
G36*
G01*
X149975000Y-102225000D02*
X149975000Y-102775000D01*
G75*
G02*
X149775000Y-102975000I-200000J0D01*
G01*
X149375000Y-102975000D01*
G75*
G02*
X149175000Y-102775000I0J200000D01*
G01*
X149175000Y-102225000D01*
G75*
G02*
X149375000Y-102025000I200000J0D01*
G01*
X149775000Y-102025000D01*
G75*
G02*
X149975000Y-102225000I0J-200000D01*
G01*
G37*
%TD*%
%TO.C,R4*%
G36*
G01*
X149175000Y-98525000D02*
X149175000Y-97975000D01*
G75*
G02*
X149375000Y-97775000I200000J0D01*
G01*
X149775000Y-97775000D01*
G75*
G02*
X149975000Y-97975000I0J-200000D01*
G01*
X149975000Y-98525000D01*
G75*
G02*
X149775000Y-98725000I-200000J0D01*
G01*
X149375000Y-98725000D01*
G75*
G02*
X149175000Y-98525000I0J200000D01*
G01*
G37*
G36*
G01*
X147525000Y-98525000D02*
X147525000Y-97975000D01*
G75*
G02*
X147725000Y-97775000I200000J0D01*
G01*
X148125000Y-97775000D01*
G75*
G02*
X148325000Y-97975000I0J-200000D01*
G01*
X148325000Y-98525000D01*
G75*
G02*
X148125000Y-98725000I-200000J0D01*
G01*
X147725000Y-98725000D01*
G75*
G02*
X147525000Y-98525000I0J200000D01*
G01*
G37*
%TD*%
%TO.C,R3*%
G36*
G01*
X145675000Y-98525000D02*
X145675000Y-97975000D01*
G75*
G02*
X145875000Y-97775000I200000J0D01*
G01*
X146275000Y-97775000D01*
G75*
G02*
X146475000Y-97975000I0J-200000D01*
G01*
X146475000Y-98525000D01*
G75*
G02*
X146275000Y-98725000I-200000J0D01*
G01*
X145875000Y-98725000D01*
G75*
G02*
X145675000Y-98525000I0J200000D01*
G01*
G37*
G36*
G01*
X144025000Y-98525000D02*
X144025000Y-97975000D01*
G75*
G02*
X144225000Y-97775000I200000J0D01*
G01*
X144625000Y-97775000D01*
G75*
G02*
X144825000Y-97975000I0J-200000D01*
G01*
X144825000Y-98525000D01*
G75*
G02*
X144625000Y-98725000I-200000J0D01*
G01*
X144225000Y-98725000D01*
G75*
G02*
X144025000Y-98525000I0J200000D01*
G01*
G37*
%TD*%
%TO.C,R1*%
G36*
G01*
X148325000Y-90475000D02*
X148325000Y-91025000D01*
G75*
G02*
X148125000Y-91225000I-200000J0D01*
G01*
X147725000Y-91225000D01*
G75*
G02*
X147525000Y-91025000I0J200000D01*
G01*
X147525000Y-90475000D01*
G75*
G02*
X147725000Y-90275000I200000J0D01*
G01*
X148125000Y-90275000D01*
G75*
G02*
X148325000Y-90475000I0J-200000D01*
G01*
G37*
G36*
G01*
X149975000Y-90475000D02*
X149975000Y-91025000D01*
G75*
G02*
X149775000Y-91225000I-200000J0D01*
G01*
X149375000Y-91225000D01*
G75*
G02*
X149175000Y-91025000I0J200000D01*
G01*
X149175000Y-90475000D01*
G75*
G02*
X149375000Y-90275000I200000J0D01*
G01*
X149775000Y-90275000D01*
G75*
G02*
X149975000Y-90475000I0J-200000D01*
G01*
G37*
%TD*%
D12*
%TO.C,D2*%
X133750000Y-103450000D03*
X133750000Y-105550000D03*
%TD*%
%TO.C,D1*%
X133750000Y-109050000D03*
X133750000Y-106950000D03*
%TD*%
%TO.C,C15*%
G36*
G01*
X140000000Y-99675000D02*
X139500000Y-99675000D01*
G75*
G02*
X139275000Y-99450000I0J225000D01*
G01*
X139275000Y-99000000D01*
G75*
G02*
X139500000Y-98775000I225000J0D01*
G01*
X140000000Y-98775000D01*
G75*
G02*
X140225000Y-99000000I0J-225000D01*
G01*
X140225000Y-99450000D01*
G75*
G02*
X140000000Y-99675000I-225000J0D01*
G01*
G37*
G36*
G01*
X140000000Y-101225000D02*
X139500000Y-101225000D01*
G75*
G02*
X139275000Y-101000000I0J225000D01*
G01*
X139275000Y-100550000D01*
G75*
G02*
X139500000Y-100325000I225000J0D01*
G01*
X140000000Y-100325000D01*
G75*
G02*
X140225000Y-100550000I0J-225000D01*
G01*
X140225000Y-101000000D01*
G75*
G02*
X140000000Y-101225000I-225000J0D01*
G01*
G37*
%TD*%
%TO.C,C13*%
G36*
G01*
X140750000Y-104825000D02*
X141250000Y-104825000D01*
G75*
G02*
X141475000Y-105050000I0J-225000D01*
G01*
X141475000Y-105500000D01*
G75*
G02*
X141250000Y-105725000I-225000J0D01*
G01*
X140750000Y-105725000D01*
G75*
G02*
X140525000Y-105500000I0J225000D01*
G01*
X140525000Y-105050000D01*
G75*
G02*
X140750000Y-104825000I225000J0D01*
G01*
G37*
G36*
G01*
X140750000Y-103275000D02*
X141250000Y-103275000D01*
G75*
G02*
X141475000Y-103500000I0J-225000D01*
G01*
X141475000Y-103950000D01*
G75*
G02*
X141250000Y-104175000I-225000J0D01*
G01*
X140750000Y-104175000D01*
G75*
G02*
X140525000Y-103950000I0J225000D01*
G01*
X140525000Y-103500000D01*
G75*
G02*
X140750000Y-103275000I225000J0D01*
G01*
G37*
%TD*%
%TO.C,C12*%
G36*
G01*
X141250000Y-107675000D02*
X140750000Y-107675000D01*
G75*
G02*
X140525000Y-107450000I0J225000D01*
G01*
X140525000Y-107000000D01*
G75*
G02*
X140750000Y-106775000I225000J0D01*
G01*
X141250000Y-106775000D01*
G75*
G02*
X141475000Y-107000000I0J-225000D01*
G01*
X141475000Y-107450000D01*
G75*
G02*
X141250000Y-107675000I-225000J0D01*
G01*
G37*
G36*
G01*
X141250000Y-109225000D02*
X140750000Y-109225000D01*
G75*
G02*
X140525000Y-109000000I0J225000D01*
G01*
X140525000Y-108550000D01*
G75*
G02*
X140750000Y-108325000I225000J0D01*
G01*
X141250000Y-108325000D01*
G75*
G02*
X141475000Y-108550000I0J-225000D01*
G01*
X141475000Y-109000000D01*
G75*
G02*
X141250000Y-109225000I-225000J0D01*
G01*
G37*
%TD*%
%TO.C,C11*%
G36*
G01*
X161000000Y-105575000D02*
X161500000Y-105575000D01*
G75*
G02*
X161725000Y-105800000I0J-225000D01*
G01*
X161725000Y-106250000D01*
G75*
G02*
X161500000Y-106475000I-225000J0D01*
G01*
X161000000Y-106475000D01*
G75*
G02*
X160775000Y-106250000I0J225000D01*
G01*
X160775000Y-105800000D01*
G75*
G02*
X161000000Y-105575000I225000J0D01*
G01*
G37*
G36*
G01*
X161000000Y-104025000D02*
X161500000Y-104025000D01*
G75*
G02*
X161725000Y-104250000I0J-225000D01*
G01*
X161725000Y-104700000D01*
G75*
G02*
X161500000Y-104925000I-225000J0D01*
G01*
X161000000Y-104925000D01*
G75*
G02*
X160775000Y-104700000I0J225000D01*
G01*
X160775000Y-104250000D01*
G75*
G02*
X161000000Y-104025000I225000J0D01*
G01*
G37*
%TD*%
%TO.C,C10*%
G36*
G01*
X161000000Y-94075000D02*
X161500000Y-94075000D01*
G75*
G02*
X161725000Y-94300000I0J-225000D01*
G01*
X161725000Y-94750000D01*
G75*
G02*
X161500000Y-94975000I-225000J0D01*
G01*
X161000000Y-94975000D01*
G75*
G02*
X160775000Y-94750000I0J225000D01*
G01*
X160775000Y-94300000D01*
G75*
G02*
X161000000Y-94075000I225000J0D01*
G01*
G37*
G36*
G01*
X161000000Y-92525000D02*
X161500000Y-92525000D01*
G75*
G02*
X161725000Y-92750000I0J-225000D01*
G01*
X161725000Y-93200000D01*
G75*
G02*
X161500000Y-93425000I-225000J0D01*
G01*
X161000000Y-93425000D01*
G75*
G02*
X160775000Y-93200000I0J225000D01*
G01*
X160775000Y-92750000D01*
G75*
G02*
X161000000Y-92525000I225000J0D01*
G01*
G37*
%TD*%
%TO.C,C9*%
G36*
G01*
X151500000Y-105575000D02*
X152000000Y-105575000D01*
G75*
G02*
X152225000Y-105800000I0J-225000D01*
G01*
X152225000Y-106250000D01*
G75*
G02*
X152000000Y-106475000I-225000J0D01*
G01*
X151500000Y-106475000D01*
G75*
G02*
X151275000Y-106250000I0J225000D01*
G01*
X151275000Y-105800000D01*
G75*
G02*
X151500000Y-105575000I225000J0D01*
G01*
G37*
G36*
G01*
X151500000Y-104025000D02*
X152000000Y-104025000D01*
G75*
G02*
X152225000Y-104250000I0J-225000D01*
G01*
X152225000Y-104700000D01*
G75*
G02*
X152000000Y-104925000I-225000J0D01*
G01*
X151500000Y-104925000D01*
G75*
G02*
X151275000Y-104700000I0J225000D01*
G01*
X151275000Y-104250000D01*
G75*
G02*
X151500000Y-104025000I225000J0D01*
G01*
G37*
%TD*%
%TO.C,C8*%
G36*
G01*
X151500000Y-93825000D02*
X152000000Y-93825000D01*
G75*
G02*
X152225000Y-94050000I0J-225000D01*
G01*
X152225000Y-94500000D01*
G75*
G02*
X152000000Y-94725000I-225000J0D01*
G01*
X151500000Y-94725000D01*
G75*
G02*
X151275000Y-94500000I0J225000D01*
G01*
X151275000Y-94050000D01*
G75*
G02*
X151500000Y-93825000I225000J0D01*
G01*
G37*
G36*
G01*
X151500000Y-92275000D02*
X152000000Y-92275000D01*
G75*
G02*
X152225000Y-92500000I0J-225000D01*
G01*
X152225000Y-92950000D01*
G75*
G02*
X152000000Y-93175000I-225000J0D01*
G01*
X151500000Y-93175000D01*
G75*
G02*
X151275000Y-92950000I0J225000D01*
G01*
X151275000Y-92500000D01*
G75*
G02*
X151500000Y-92275000I225000J0D01*
G01*
G37*
%TD*%
%TO.C,C7*%
G36*
G01*
X158575000Y-110250000D02*
X158575000Y-109750000D01*
G75*
G02*
X158800000Y-109525000I225000J0D01*
G01*
X159250000Y-109525000D01*
G75*
G02*
X159475000Y-109750000I0J-225000D01*
G01*
X159475000Y-110250000D01*
G75*
G02*
X159250000Y-110475000I-225000J0D01*
G01*
X158800000Y-110475000D01*
G75*
G02*
X158575000Y-110250000I0J225000D01*
G01*
G37*
G36*
G01*
X157025000Y-110250000D02*
X157025000Y-109750000D01*
G75*
G02*
X157250000Y-109525000I225000J0D01*
G01*
X157700000Y-109525000D01*
G75*
G02*
X157925000Y-109750000I0J-225000D01*
G01*
X157925000Y-110250000D01*
G75*
G02*
X157700000Y-110475000I-225000J0D01*
G01*
X157250000Y-110475000D01*
G75*
G02*
X157025000Y-110250000I0J225000D01*
G01*
G37*
%TD*%
%TO.C,C6*%
G36*
G01*
X154400000Y-102250000D02*
X154400000Y-102750000D01*
G75*
G02*
X154175000Y-102975000I-225000J0D01*
G01*
X153725000Y-102975000D01*
G75*
G02*
X153500000Y-102750000I0J225000D01*
G01*
X153500000Y-102250000D01*
G75*
G02*
X153725000Y-102025000I225000J0D01*
G01*
X154175000Y-102025000D01*
G75*
G02*
X154400000Y-102250000I0J-225000D01*
G01*
G37*
G36*
G01*
X155950000Y-102250000D02*
X155950000Y-102750000D01*
G75*
G02*
X155725000Y-102975000I-225000J0D01*
G01*
X155275000Y-102975000D01*
G75*
G02*
X155050000Y-102750000I0J225000D01*
G01*
X155050000Y-102250000D01*
G75*
G02*
X155275000Y-102025000I225000J0D01*
G01*
X155725000Y-102025000D01*
G75*
G02*
X155950000Y-102250000I0J-225000D01*
G01*
G37*
%TD*%
%TO.C,C5*%
G36*
G01*
X158575000Y-98750000D02*
X158575000Y-98250000D01*
G75*
G02*
X158800000Y-98025000I225000J0D01*
G01*
X159250000Y-98025000D01*
G75*
G02*
X159475000Y-98250000I0J-225000D01*
G01*
X159475000Y-98750000D01*
G75*
G02*
X159250000Y-98975000I-225000J0D01*
G01*
X158800000Y-98975000D01*
G75*
G02*
X158575000Y-98750000I0J225000D01*
G01*
G37*
G36*
G01*
X157025000Y-98750000D02*
X157025000Y-98250000D01*
G75*
G02*
X157250000Y-98025000I225000J0D01*
G01*
X157700000Y-98025000D01*
G75*
G02*
X157925000Y-98250000I0J-225000D01*
G01*
X157925000Y-98750000D01*
G75*
G02*
X157700000Y-98975000I-225000J0D01*
G01*
X157250000Y-98975000D01*
G75*
G02*
X157025000Y-98750000I0J225000D01*
G01*
G37*
%TD*%
%TO.C,C4*%
G36*
G01*
X154425000Y-90750000D02*
X154425000Y-91250000D01*
G75*
G02*
X154200000Y-91475000I-225000J0D01*
G01*
X153750000Y-91475000D01*
G75*
G02*
X153525000Y-91250000I0J225000D01*
G01*
X153525000Y-90750000D01*
G75*
G02*
X153750000Y-90525000I225000J0D01*
G01*
X154200000Y-90525000D01*
G75*
G02*
X154425000Y-90750000I0J-225000D01*
G01*
G37*
G36*
G01*
X155975000Y-90750000D02*
X155975000Y-91250000D01*
G75*
G02*
X155750000Y-91475000I-225000J0D01*
G01*
X155300000Y-91475000D01*
G75*
G02*
X155075000Y-91250000I0J225000D01*
G01*
X155075000Y-90750000D01*
G75*
G02*
X155300000Y-90525000I225000J0D01*
G01*
X155750000Y-90525000D01*
G75*
G02*
X155975000Y-90750000I0J-225000D01*
G01*
G37*
%TD*%
%TO.C,C3*%
G36*
G01*
X149075000Y-110250000D02*
X149075000Y-109750000D01*
G75*
G02*
X149300000Y-109525000I225000J0D01*
G01*
X149750000Y-109525000D01*
G75*
G02*
X149975000Y-109750000I0J-225000D01*
G01*
X149975000Y-110250000D01*
G75*
G02*
X149750000Y-110475000I-225000J0D01*
G01*
X149300000Y-110475000D01*
G75*
G02*
X149075000Y-110250000I0J225000D01*
G01*
G37*
G36*
G01*
X147525000Y-110250000D02*
X147525000Y-109750000D01*
G75*
G02*
X147750000Y-109525000I225000J0D01*
G01*
X148200000Y-109525000D01*
G75*
G02*
X148425000Y-109750000I0J-225000D01*
G01*
X148425000Y-110250000D01*
G75*
G02*
X148200000Y-110475000I-225000J0D01*
G01*
X147750000Y-110475000D01*
G75*
G02*
X147525000Y-110250000I0J225000D01*
G01*
G37*
%TD*%
%TO.C,C2*%
G36*
G01*
X144925000Y-102250000D02*
X144925000Y-102750000D01*
G75*
G02*
X144700000Y-102975000I-225000J0D01*
G01*
X144250000Y-102975000D01*
G75*
G02*
X144025000Y-102750000I0J225000D01*
G01*
X144025000Y-102250000D01*
G75*
G02*
X144250000Y-102025000I225000J0D01*
G01*
X144700000Y-102025000D01*
G75*
G02*
X144925000Y-102250000I0J-225000D01*
G01*
G37*
G36*
G01*
X146475000Y-102250000D02*
X146475000Y-102750000D01*
G75*
G02*
X146250000Y-102975000I-225000J0D01*
G01*
X145800000Y-102975000D01*
G75*
G02*
X145575000Y-102750000I0J225000D01*
G01*
X145575000Y-102250000D01*
G75*
G02*
X145800000Y-102025000I225000J0D01*
G01*
X146250000Y-102025000D01*
G75*
G02*
X146475000Y-102250000I0J-225000D01*
G01*
G37*
%TD*%
%TO.C,C1*%
G36*
G01*
X144925000Y-90500000D02*
X144925000Y-91000000D01*
G75*
G02*
X144700000Y-91225000I-225000J0D01*
G01*
X144250000Y-91225000D01*
G75*
G02*
X144025000Y-91000000I0J225000D01*
G01*
X144025000Y-90500000D01*
G75*
G02*
X144250000Y-90275000I225000J0D01*
G01*
X144700000Y-90275000D01*
G75*
G02*
X144925000Y-90500000I0J-225000D01*
G01*
G37*
G36*
G01*
X146475000Y-90500000D02*
X146475000Y-91000000D01*
G75*
G02*
X146250000Y-91225000I-225000J0D01*
G01*
X145800000Y-91225000D01*
G75*
G02*
X145575000Y-91000000I0J225000D01*
G01*
X145575000Y-90500000D01*
G75*
G02*
X145800000Y-90275000I225000J0D01*
G01*
X146250000Y-90275000D01*
G75*
G02*
X146475000Y-90500000I0J-225000D01*
G01*
G37*
%TD*%
%TO.C,U4*%
G36*
G01*
X158000000Y-104495000D02*
X158000000Y-104195000D01*
G75*
G02*
X158150000Y-104045000I150000J0D01*
G01*
X159800000Y-104045000D01*
G75*
G02*
X159950000Y-104195000I0J-150000D01*
G01*
X159950000Y-104495000D01*
G75*
G02*
X159800000Y-104645000I-150000J0D01*
G01*
X158150000Y-104645000D01*
G75*
G02*
X158000000Y-104495000I0J150000D01*
G01*
G37*
G36*
G01*
X158000000Y-105765000D02*
X158000000Y-105465000D01*
G75*
G02*
X158150000Y-105315000I150000J0D01*
G01*
X159800000Y-105315000D01*
G75*
G02*
X159950000Y-105465000I0J-150000D01*
G01*
X159950000Y-105765000D01*
G75*
G02*
X159800000Y-105915000I-150000J0D01*
G01*
X158150000Y-105915000D01*
G75*
G02*
X158000000Y-105765000I0J150000D01*
G01*
G37*
G36*
G01*
X158000000Y-107035000D02*
X158000000Y-106735000D01*
G75*
G02*
X158150000Y-106585000I150000J0D01*
G01*
X159800000Y-106585000D01*
G75*
G02*
X159950000Y-106735000I0J-150000D01*
G01*
X159950000Y-107035000D01*
G75*
G02*
X159800000Y-107185000I-150000J0D01*
G01*
X158150000Y-107185000D01*
G75*
G02*
X158000000Y-107035000I0J150000D01*
G01*
G37*
G36*
G01*
X158000000Y-108305000D02*
X158000000Y-108005000D01*
G75*
G02*
X158150000Y-107855000I150000J0D01*
G01*
X159800000Y-107855000D01*
G75*
G02*
X159950000Y-108005000I0J-150000D01*
G01*
X159950000Y-108305000D01*
G75*
G02*
X159800000Y-108455000I-150000J0D01*
G01*
X158150000Y-108455000D01*
G75*
G02*
X158000000Y-108305000I0J150000D01*
G01*
G37*
G36*
G01*
X153050000Y-108305000D02*
X153050000Y-108005000D01*
G75*
G02*
X153200000Y-107855000I150000J0D01*
G01*
X154850000Y-107855000D01*
G75*
G02*
X155000000Y-108005000I0J-150000D01*
G01*
X155000000Y-108305000D01*
G75*
G02*
X154850000Y-108455000I-150000J0D01*
G01*
X153200000Y-108455000D01*
G75*
G02*
X153050000Y-108305000I0J150000D01*
G01*
G37*
G36*
G01*
X153050000Y-107035000D02*
X153050000Y-106735000D01*
G75*
G02*
X153200000Y-106585000I150000J0D01*
G01*
X154850000Y-106585000D01*
G75*
G02*
X155000000Y-106735000I0J-150000D01*
G01*
X155000000Y-107035000D01*
G75*
G02*
X154850000Y-107185000I-150000J0D01*
G01*
X153200000Y-107185000D01*
G75*
G02*
X153050000Y-107035000I0J150000D01*
G01*
G37*
G36*
G01*
X153050000Y-105765000D02*
X153050000Y-105465000D01*
G75*
G02*
X153200000Y-105315000I150000J0D01*
G01*
X154850000Y-105315000D01*
G75*
G02*
X155000000Y-105465000I0J-150000D01*
G01*
X155000000Y-105765000D01*
G75*
G02*
X154850000Y-105915000I-150000J0D01*
G01*
X153200000Y-105915000D01*
G75*
G02*
X153050000Y-105765000I0J150000D01*
G01*
G37*
G36*
G01*
X153050000Y-104495000D02*
X153050000Y-104195000D01*
G75*
G02*
X153200000Y-104045000I150000J0D01*
G01*
X154850000Y-104045000D01*
G75*
G02*
X155000000Y-104195000I0J-150000D01*
G01*
X155000000Y-104495000D01*
G75*
G02*
X154850000Y-104645000I-150000J0D01*
G01*
X153200000Y-104645000D01*
G75*
G02*
X153050000Y-104495000I0J150000D01*
G01*
G37*
%TD*%
%TO.C,U3*%
G36*
G01*
X158000000Y-92995000D02*
X158000000Y-92695000D01*
G75*
G02*
X158150000Y-92545000I150000J0D01*
G01*
X159800000Y-92545000D01*
G75*
G02*
X159950000Y-92695000I0J-150000D01*
G01*
X159950000Y-92995000D01*
G75*
G02*
X159800000Y-93145000I-150000J0D01*
G01*
X158150000Y-93145000D01*
G75*
G02*
X158000000Y-92995000I0J150000D01*
G01*
G37*
G36*
G01*
X158000000Y-94265000D02*
X158000000Y-93965000D01*
G75*
G02*
X158150000Y-93815000I150000J0D01*
G01*
X159800000Y-93815000D01*
G75*
G02*
X159950000Y-93965000I0J-150000D01*
G01*
X159950000Y-94265000D01*
G75*
G02*
X159800000Y-94415000I-150000J0D01*
G01*
X158150000Y-94415000D01*
G75*
G02*
X158000000Y-94265000I0J150000D01*
G01*
G37*
G36*
G01*
X158000000Y-95535000D02*
X158000000Y-95235000D01*
G75*
G02*
X158150000Y-95085000I150000J0D01*
G01*
X159800000Y-95085000D01*
G75*
G02*
X159950000Y-95235000I0J-150000D01*
G01*
X159950000Y-95535000D01*
G75*
G02*
X159800000Y-95685000I-150000J0D01*
G01*
X158150000Y-95685000D01*
G75*
G02*
X158000000Y-95535000I0J150000D01*
G01*
G37*
G36*
G01*
X158000000Y-96805000D02*
X158000000Y-96505000D01*
G75*
G02*
X158150000Y-96355000I150000J0D01*
G01*
X159800000Y-96355000D01*
G75*
G02*
X159950000Y-96505000I0J-150000D01*
G01*
X159950000Y-96805000D01*
G75*
G02*
X159800000Y-96955000I-150000J0D01*
G01*
X158150000Y-96955000D01*
G75*
G02*
X158000000Y-96805000I0J150000D01*
G01*
G37*
G36*
G01*
X153050000Y-96805000D02*
X153050000Y-96505000D01*
G75*
G02*
X153200000Y-96355000I150000J0D01*
G01*
X154850000Y-96355000D01*
G75*
G02*
X155000000Y-96505000I0J-150000D01*
G01*
X155000000Y-96805000D01*
G75*
G02*
X154850000Y-96955000I-150000J0D01*
G01*
X153200000Y-96955000D01*
G75*
G02*
X153050000Y-96805000I0J150000D01*
G01*
G37*
G36*
G01*
X153050000Y-95535000D02*
X153050000Y-95235000D01*
G75*
G02*
X153200000Y-95085000I150000J0D01*
G01*
X154850000Y-95085000D01*
G75*
G02*
X155000000Y-95235000I0J-150000D01*
G01*
X155000000Y-95535000D01*
G75*
G02*
X154850000Y-95685000I-150000J0D01*
G01*
X153200000Y-95685000D01*
G75*
G02*
X153050000Y-95535000I0J150000D01*
G01*
G37*
G36*
G01*
X153050000Y-94265000D02*
X153050000Y-93965000D01*
G75*
G02*
X153200000Y-93815000I150000J0D01*
G01*
X154850000Y-93815000D01*
G75*
G02*
X155000000Y-93965000I0J-150000D01*
G01*
X155000000Y-94265000D01*
G75*
G02*
X154850000Y-94415000I-150000J0D01*
G01*
X153200000Y-94415000D01*
G75*
G02*
X153050000Y-94265000I0J150000D01*
G01*
G37*
G36*
G01*
X153050000Y-92995000D02*
X153050000Y-92695000D01*
G75*
G02*
X153200000Y-92545000I150000J0D01*
G01*
X154850000Y-92545000D01*
G75*
G02*
X155000000Y-92695000I0J-150000D01*
G01*
X155000000Y-92995000D01*
G75*
G02*
X154850000Y-93145000I-150000J0D01*
G01*
X153200000Y-93145000D01*
G75*
G02*
X153050000Y-92995000I0J150000D01*
G01*
G37*
%TD*%
%TO.C,U2*%
G36*
G01*
X148500000Y-92745000D02*
X148500000Y-92445000D01*
G75*
G02*
X148650000Y-92295000I150000J0D01*
G01*
X150300000Y-92295000D01*
G75*
G02*
X150450000Y-92445000I0J-150000D01*
G01*
X150450000Y-92745000D01*
G75*
G02*
X150300000Y-92895000I-150000J0D01*
G01*
X148650000Y-92895000D01*
G75*
G02*
X148500000Y-92745000I0J150000D01*
G01*
G37*
G36*
G01*
X148500000Y-94015000D02*
X148500000Y-93715000D01*
G75*
G02*
X148650000Y-93565000I150000J0D01*
G01*
X150300000Y-93565000D01*
G75*
G02*
X150450000Y-93715000I0J-150000D01*
G01*
X150450000Y-94015000D01*
G75*
G02*
X150300000Y-94165000I-150000J0D01*
G01*
X148650000Y-94165000D01*
G75*
G02*
X148500000Y-94015000I0J150000D01*
G01*
G37*
G36*
G01*
X148500000Y-95285000D02*
X148500000Y-94985000D01*
G75*
G02*
X148650000Y-94835000I150000J0D01*
G01*
X150300000Y-94835000D01*
G75*
G02*
X150450000Y-94985000I0J-150000D01*
G01*
X150450000Y-95285000D01*
G75*
G02*
X150300000Y-95435000I-150000J0D01*
G01*
X148650000Y-95435000D01*
G75*
G02*
X148500000Y-95285000I0J150000D01*
G01*
G37*
G36*
G01*
X148500000Y-96555000D02*
X148500000Y-96255000D01*
G75*
G02*
X148650000Y-96105000I150000J0D01*
G01*
X150300000Y-96105000D01*
G75*
G02*
X150450000Y-96255000I0J-150000D01*
G01*
X150450000Y-96555000D01*
G75*
G02*
X150300000Y-96705000I-150000J0D01*
G01*
X148650000Y-96705000D01*
G75*
G02*
X148500000Y-96555000I0J150000D01*
G01*
G37*
G36*
G01*
X143550000Y-96555000D02*
X143550000Y-96255000D01*
G75*
G02*
X143700000Y-96105000I150000J0D01*
G01*
X145350000Y-96105000D01*
G75*
G02*
X145500000Y-96255000I0J-150000D01*
G01*
X145500000Y-96555000D01*
G75*
G02*
X145350000Y-96705000I-150000J0D01*
G01*
X143700000Y-96705000D01*
G75*
G02*
X143550000Y-96555000I0J150000D01*
G01*
G37*
G36*
G01*
X143550000Y-95285000D02*
X143550000Y-94985000D01*
G75*
G02*
X143700000Y-94835000I150000J0D01*
G01*
X145350000Y-94835000D01*
G75*
G02*
X145500000Y-94985000I0J-150000D01*
G01*
X145500000Y-95285000D01*
G75*
G02*
X145350000Y-95435000I-150000J0D01*
G01*
X143700000Y-95435000D01*
G75*
G02*
X143550000Y-95285000I0J150000D01*
G01*
G37*
G36*
G01*
X143550000Y-94015000D02*
X143550000Y-93715000D01*
G75*
G02*
X143700000Y-93565000I150000J0D01*
G01*
X145350000Y-93565000D01*
G75*
G02*
X145500000Y-93715000I0J-150000D01*
G01*
X145500000Y-94015000D01*
G75*
G02*
X145350000Y-94165000I-150000J0D01*
G01*
X143700000Y-94165000D01*
G75*
G02*
X143550000Y-94015000I0J150000D01*
G01*
G37*
G36*
G01*
X143550000Y-92745000D02*
X143550000Y-92445000D01*
G75*
G02*
X143700000Y-92295000I150000J0D01*
G01*
X145350000Y-92295000D01*
G75*
G02*
X145500000Y-92445000I0J-150000D01*
G01*
X145500000Y-92745000D01*
G75*
G02*
X145350000Y-92895000I-150000J0D01*
G01*
X143700000Y-92895000D01*
G75*
G02*
X143550000Y-92745000I0J150000D01*
G01*
G37*
%TD*%
%TO.C,U1*%
G36*
G01*
X148500000Y-104495000D02*
X148500000Y-104195000D01*
G75*
G02*
X148650000Y-104045000I150000J0D01*
G01*
X150300000Y-104045000D01*
G75*
G02*
X150450000Y-104195000I0J-150000D01*
G01*
X150450000Y-104495000D01*
G75*
G02*
X150300000Y-104645000I-150000J0D01*
G01*
X148650000Y-104645000D01*
G75*
G02*
X148500000Y-104495000I0J150000D01*
G01*
G37*
G36*
G01*
X148500000Y-105765000D02*
X148500000Y-105465000D01*
G75*
G02*
X148650000Y-105315000I150000J0D01*
G01*
X150300000Y-105315000D01*
G75*
G02*
X150450000Y-105465000I0J-150000D01*
G01*
X150450000Y-105765000D01*
G75*
G02*
X150300000Y-105915000I-150000J0D01*
G01*
X148650000Y-105915000D01*
G75*
G02*
X148500000Y-105765000I0J150000D01*
G01*
G37*
G36*
G01*
X148500000Y-107035000D02*
X148500000Y-106735000D01*
G75*
G02*
X148650000Y-106585000I150000J0D01*
G01*
X150300000Y-106585000D01*
G75*
G02*
X150450000Y-106735000I0J-150000D01*
G01*
X150450000Y-107035000D01*
G75*
G02*
X150300000Y-107185000I-150000J0D01*
G01*
X148650000Y-107185000D01*
G75*
G02*
X148500000Y-107035000I0J150000D01*
G01*
G37*
G36*
G01*
X148500000Y-108305000D02*
X148500000Y-108005000D01*
G75*
G02*
X148650000Y-107855000I150000J0D01*
G01*
X150300000Y-107855000D01*
G75*
G02*
X150450000Y-108005000I0J-150000D01*
G01*
X150450000Y-108305000D01*
G75*
G02*
X150300000Y-108455000I-150000J0D01*
G01*
X148650000Y-108455000D01*
G75*
G02*
X148500000Y-108305000I0J150000D01*
G01*
G37*
G36*
G01*
X143550000Y-108305000D02*
X143550000Y-108005000D01*
G75*
G02*
X143700000Y-107855000I150000J0D01*
G01*
X145350000Y-107855000D01*
G75*
G02*
X145500000Y-108005000I0J-150000D01*
G01*
X145500000Y-108305000D01*
G75*
G02*
X145350000Y-108455000I-150000J0D01*
G01*
X143700000Y-108455000D01*
G75*
G02*
X143550000Y-108305000I0J150000D01*
G01*
G37*
G36*
G01*
X143550000Y-107035000D02*
X143550000Y-106735000D01*
G75*
G02*
X143700000Y-106585000I150000J0D01*
G01*
X145350000Y-106585000D01*
G75*
G02*
X145500000Y-106735000I0J-150000D01*
G01*
X145500000Y-107035000D01*
G75*
G02*
X145350000Y-107185000I-150000J0D01*
G01*
X143700000Y-107185000D01*
G75*
G02*
X143550000Y-107035000I0J150000D01*
G01*
G37*
G36*
G01*
X143550000Y-105765000D02*
X143550000Y-105465000D01*
G75*
G02*
X143700000Y-105315000I150000J0D01*
G01*
X145350000Y-105315000D01*
G75*
G02*
X145500000Y-105465000I0J-150000D01*
G01*
X145500000Y-105765000D01*
G75*
G02*
X145350000Y-105915000I-150000J0D01*
G01*
X143700000Y-105915000D01*
G75*
G02*
X143550000Y-105765000I0J150000D01*
G01*
G37*
G36*
G01*
X143550000Y-104495000D02*
X143550000Y-104195000D01*
G75*
G02*
X143700000Y-104045000I150000J0D01*
G01*
X145350000Y-104045000D01*
G75*
G02*
X145500000Y-104195000I0J-150000D01*
G01*
X145500000Y-104495000D01*
G75*
G02*
X145350000Y-104645000I-150000J0D01*
G01*
X143700000Y-104645000D01*
G75*
G02*
X143550000Y-104495000I0J150000D01*
G01*
G37*
%TD*%
M02*
